<?xml version="1.0" standalone="no"?><!DOCTYPE svg PUBLIC "-//W3C//DTD SVG 1.1//EN" "http://www.w3.org/Graphics/SVG/1.1/DTD/svg11.dtd"><svg t="1702278445481" class="icon" viewBox="0 0 1024 1024" version="1.1" xmlns="http://www.w3.org/2000/svg" p-id="10999" xmlns:xlink="http://www.w3.org/1999/xlink" width="256" height="256"><path d="M259.797333 893.770667c-110.933333-95.306667 56.106667-424.874667 142.794667-515.818667 61.386667-40.928 176.213333-17.056 225.941333 0 211.445333 190.986667 216.8 460.714667 153.493334 515.818667-66.666667 58.026667-451.36 60.896-522.24 0z" fill="#F91F1F" p-id="11000"></path><path d="M387.146667 363.232c1.088-1.141333 2.304-2.154667 3.616-3.029333 36.736-24.490667 86.762667-28.352 130.666666-25.28 44.725333 3.136 87.68 13.824 114.026667 22.848a21.333333 21.333333 0 0 1 7.381333 4.352C752.234667 460.938667 808.533333 580.330667 829.216 682.592c10.336 51.072 11.882667 98.389333 6.389333 137.173333-5.344 37.781333-17.930667 71.253333-39.573333 90.101334-11.594667 10.090667-28.16 17.546667-46.112 23.36-18.421333 5.962667-40.341333 10.805333-64.277333 14.656-47.893333 7.68-105.6 11.626667-163.093334 11.818666-57.493333 0.181333-115.466667-3.402667-163.946666-11.008-24.213333-3.797333-46.485333-8.672-65.322667-14.762666-18.432-5.952-35.349333-13.632-47.392-23.978667-34.837333-29.930667-45.6-76.330667-44.096-124.853333 1.514667-48.917333 15.509333-104.298667 35.264-158.218667 39.392-107.477333 104.138667-215.434667 150.090667-263.648z m241.386666 14.72c211.445333 190.986667 216.8 460.714667 153.493334 515.818667-66.666667 58.026667-451.36 60.896-522.24 0-110.933333-95.306667 56.128-424.874667 142.805333-515.818667 61.386667-40.928 176.213333-17.056 225.941333 0z" fill="#890E0E" p-id="11001"></path><path d="M223.498667 777.333333c2.421333 35.317333 13.472 64.832 36.298666 84.437334 70.869333 60.896 455.562667 58.026667 522.218667 0 19.701333-17.141333 32.757333-55.072 35.018667-104.949334 2.794667 65.493333-11.285333 116.298667-35.018667 136.96-66.666667 58.016-451.349333 60.885333-522.218667 0-29.429333-25.28-39.296-67.04-36.298666-116.448z" fill="#D91F1F" p-id="11002"></path><path d="M676.426667 927.722667c49.322667-7.466667 88.234667-18.848 105.6-33.952 63.306667-55.104 57.952-324.832-153.493334-515.818667-26.272-9.002667-70.709333-19.914667-115.84-22.176 20.330667 5.333333 38.186667 11.392 51.456 16.725333C773.653333 582.474667 764.650667 863.178667 695.850667 917.056c-4.992 3.904-11.530667 7.466667-19.413334 10.666667z" fill="#D91F1F" p-id="11003"></path><path d="M732.053333 694.954667a11.413333 11.413333 0 1 1-22.858666 0 11.413333 11.413333 0 0 1 22.848 0zM778.304 721.802667a15.424 15.424 0 1 1-30.837333 0 15.424 15.424 0 0 1 30.837333 0zM770.592 671.68a11.562667 11.562667 0 1 1-23.125333 0 11.562667 11.562667 0 0 1 23.125333 0zM780 788.053333a23.989333 23.989333 0 1 1-47.978667 0 23.989333 23.989333 0 0 1 47.978667 0zM732.053333 744.928a15.424 15.424 0 1 1-30.848 0 15.424 15.424 0 0 1 30.837334 0zM739.328 838.026667a9.354667 9.354667 0 1 1-18.709333 0 9.354667 9.354667 0 0 1 18.709333 0zM706.890667 867.445333a15.424 15.424 0 1 1-30.837334 0 15.424 15.424 0 0 1 30.837334 0zM709.194667 814.901333a15.424 15.424 0 1 1-30.837334 0 15.424 15.424 0 0 1 30.837334 0zM652.650667 888.426667a11.562667 11.562667 0 1 1-23.125334 0 11.562667 11.562667 0 0 1 23.125334 0z" fill="#AB1B1B" p-id="11004"></path><path d="M460.672 672c-23.253333 91.349333-96.426667 114.837333-140.672 104-32.672-8-74.709333-84.192-39.509333-167.648 35.2-83.456 73.333333-131.338667 143.616-127.114667 56.469333 3.402667 55.349333 116.949333 36.565333 190.762667z" fill="#FD5252" p-id="11005"></path><path d="M377.248 529.792a21.333333 21.333333 0 0 1-1.706667 30.122667c-6.549333 5.845333-14.954667 17.493333-22.592 32.256-7.509333 14.528-13.12 29.834667-15.296 41.685333a21.333333 21.333333 0 0 1-41.962666-7.712c3.146667-17.152 10.538667-36.512 19.36-53.568 8.693333-16.810667 19.946667-33.664 32.074666-44.48a21.333333 21.333333 0 0 1 30.122667 1.696z" fill="#FFA7A7" p-id="11006"></path><path d="M616.277333 390.741333c57.973333-20.458667 100.885333-122.208 115.093334-170.517333 8.533333-59.68-29.834667-72.469333-51.157334-68.213333-21.312 4.266667-51.146667 8.533333-59.68 0-8.522667-8.522667-59.68-46.890667-89.514666-4.266667-23.882667 34.112-61.109333 36.949333-76.736 34.112-25.578667-5.685333-75.882667-6.826667-72.469334 34.101333 3.413333 40.928-24.16 51.157333-38.368 51.157334-19.893333-2.837333-57.130667-0.853333-46.890666 29.845333 10.229333 30.688 80.992 75.306667 115.093333 93.781333 61.386667-37.514667 161.994667-15.626667 204.629333 0z" fill="#F91F1F" p-id="11007"></path><path d="M751.84 226.24c0.288-0.981333 0.512-1.984 0.650667-2.997333 4.938667-34.570667-3.232-60.672-21.194667-76.917334-17.024-15.413333-39.146667-18.453333-55.253333-15.232l4.181333 20.917334c21.312-4.266667 59.68 8.533333 51.146667 68.213333-14.208 48.32-57.12 150.058667-115.093334 170.517333-42.634667-15.626667-143.242667-37.514667-204.629333 0-34.101333-18.474667-104.864-63.093333-115.093333-93.781333-10.24-30.698667 26.986667-32.682667 46.890666-29.845333 14.208 0 41.770667-10.24 38.368-51.157334-3.413333-40.917333 46.890667-39.786667 72.469334-34.101333 15.626667 2.837333 52.864 0 76.736-34.101333 29.834667-42.634667 80.992-4.266667 89.514666 4.266666 8.533333 8.522667 38.368 4.256 59.690667 0l-4.192-20.928c-10.336 2.069333-21.888 3.946667-31.466667 4.405334-4.821333 0.234667-8.32 0.053333-10.538666-0.32l-0.309334-0.053334c-7.413333-6.730667-23.989333-18.848-43.765333-24.842666-11.157333-3.381333-24.704-5.226667-38.698667-1.76-14.506667 3.605333-27.52 12.437333-37.717333 26.986666-17.514667 25.024-44.736 27.157333-55.114667 25.408-14.453333-3.146667-36.970667-5.408-56.778666-0.096-10.261333 2.762667-21.546667 8.032-29.930667 18.08-8.789333 10.538667-12.405333 23.946667-11.157333 38.826667 1.248 15.104-3.2 21.066667-5.866667 23.541333a17.984 17.984 0 0 1-10.197333 4.469334c-11.424-1.418667-28.736-1.76-43.338667 3.765333-8.064 3.061333-17.589333 8.789333-23.242667 19.456-5.866667 11.061333-5.408 23.306667-1.6 34.741333 4.128 12.373333 13.269333 23.754667 22.506667 33.184 9.664 9.866667 21.482667 19.637333 33.6 28.661334 24.224 18.048 51.349333 34.346667 69.077333 43.946666a21.333333 21.333333 0 0 0 21.28-0.544c25.109333-15.349333 60.266667-19.466667 96.693334-16.853333 35.936 2.570667 69.781333 11.456 89.461333 18.666667a21.333333 21.333333 0 0 0 14.442667 0.106666c36.693333-12.96 65.205333-49.589333 85.312-84.234666 20.778667-35.786667 35.669333-74.933333 43.157333-100.394667zM632.64 134.848s0.053333 0.032 0.181333 0.064a0.96 0.96 0 0 0-0.181333-0.064z" fill="#890E0E" p-id="11008"></path><path d="M357.898667 278.453333a10.666667 10.666667 0 0 1 14.304 4.778667c2.229333 4.448 7.093333 11.829333 12.992 19.701333 5.845333 7.786667 12.170667 15.36 17.013333 20.192a10.666667 10.666667 0 0 1-15.082667 15.082667c-5.824-5.824-12.832-14.261333-18.986666-22.474667-6.101333-8.128-11.904-16.746667-15.008-22.965333a10.666667 10.666667 0 0 1 4.768-14.304zM478.250667 192.149333a10.666667 10.666667 0 0 1 12.266666 8.768c2.56 15.392 8.064 37.450667 14.144 57.824 6.186667 20.736 12.544 38.24 16.586667 45.28a10.666667 10.666667 0 0 1-18.496 10.624c-5.461333-9.504-12.437333-29.333333-18.538667-49.802666-6.208-20.821333-11.968-43.818667-14.730666-60.426667a10.666667 10.666667 0 0 1 8.768-12.266667zM621.248 165.653333a10.666667 10.666667 0 0 1 7.765333 12.928C618.634667 220.117333 613.333333 288.512 613.333333 320a10.666667 10.666667 0 1 1-21.333333 0c0-32.512 5.365333-102.784 16.32-146.592a10.666667 10.666667 0 0 1 12.928-7.754667z" fill="#FE5252" p-id="11009"></path><path d="M553.333333 480c0 64.8-11.637333 117.333333-26.005333 117.333333C512.970667 597.333333 501.333333 544.8 501.333333 480s11.637333-117.333333 26.005334-117.333333c14.357333 0 25.994667 52.533333 25.994666 117.333333zM455.04 456.917333c-14.848 49.610667-37.866667 86.549333-51.402667 82.506667-13.525333-4.053333-12.458667-47.573333 2.4-97.184 14.858667-49.621333 37.866667-86.56 51.413334-82.506667 13.525333 4.053333 12.448 47.562667-2.4 97.173334zM584.853333 308.394667c0.725333 45.184-6.026667 81.930667-15.104 82.08-9.066667 0.149333-17.013333-36.362667-17.738666-81.546667-0.746667-45.184 6.016-81.930667 15.082666-82.08 9.066667-0.149333 17.024 36.373333 17.749334 81.546667z" fill="#B81212" p-id="11010"></path><path d="M468.810667 309.941333c21.792 39.594667 33.024 75.232 25.077333 79.605334-7.946667 4.373333-32.053333-24.170667-53.845333-63.765334-21.802667-39.573333-33.024-75.221333-25.077334-79.594666 7.946667-4.373333 32.053333 24.170667 53.845334 63.754666zM667.850667 317.333333c-19.946667 40.533333-42.730667 70.165333-50.88 66.154667-8.128-4.010667 1.450667-40.117333 21.418666-80.661333 19.957333-40.533333 42.741333-70.165333 50.88-66.154667 8.138667 4.010667-1.450667 40.117333-21.418666 80.661333z" fill="#B81212" p-id="11011"></path><path d="M642.453333 449.386667c13.365333 50.048 13.12 93.578667-0.522666 97.216-13.653333 3.648-35.541333-33.973333-48.896-84.021334-13.354667-50.037333-13.12-93.568 0.533333-97.205333 13.653333-3.648 35.530667 33.973333 48.896 84.021333z" fill="#B81212" p-id="11012"></path><path d="M399.733333 357.984C357.973333 374.048 341.333333 420.416 341.333333 439.157333c9.376-10.709333 58.72-38.602667 155.093334-45.024 96.384-6.432 172.832 19.541333 191.573333 35.605334-6.421333-32.128-15.509333-59.850667-44.586667-71.754667-70.688-28.906667-206.421333-14.325333-243.68 0z" fill="#18BC8B" p-id="11013"></path><path d="M333.834667 459.125333A21.333333 21.333333 0 0 1 320 439.157333c0-14.037333 5.664-34.016 16.490667-52.405333 11.093333-18.858667 29.013333-38.453333 55.594666-48.672m7.648 19.904l-7.648-19.904c21.962667-8.448 68.042667-15.786667 116.138667-17.621333 48.149333-1.856 103.541333 1.536 143.264 17.781333 40.426667 16.544 51.050667 55.434667 57.429333 87.317333a21.333333 21.333333 0 0 1-34.805333 20.373334c-2.08-1.781333-7.872-5.386667-18.421333-9.674667-10.112-4.106667-23.328-8.330667-39.146667-11.968-31.605333-7.253333-72.725333-11.946667-118.698667-8.874667-46.4 3.093333-80.885333 11.317333-104.426666 19.722667-11.786667 4.202667-20.693333 8.405333-26.933334 11.936-6.570667 3.722667-9.002667 6.048-9.098666 6.133333a21.333333 21.333333 0 0 1-23.552 5.92m65.898666-101.141333c-25.301333 9.738667-41.386667 30.592-50.133333 49.696-5.685333 12.416-8.266667 24.096-8.266667 31.477333 3.285333-3.754667 11.498667-9.632 24.949334-15.957333 24.853333-11.690667 67.594667-24.896 130.144-29.066667 71.754667-4.789333 132.448 8.384 166.528 22.048 11.690667 4.693333 20.256 9.450667 25.045333 13.557334-2.069333-10.325333-4.405333-20.202667-7.594667-29.248-6.741333-19.072-17.269333-34.432-36.992-42.506667-70.688-28.906667-206.421333-14.325333-243.68 0z" fill="#065940" p-id="11014"></path><path d="M345.077333 419.264c-2.56 7.872-3.744 14.88-3.744 19.893333 9.376-10.709333 58.72-38.602667 155.093334-45.024 5.066667-0.341333 10.069333-0.586667 15.018666-0.746666a452.298667 452.298667 0 0 0-45.162666 0.746666c-55.605333 3.701333-95.552 14.56-121.205334 25.130667z m308.938667-6.432c-6.517333-24.714667-16.917333-45.098667-40.746667-54.848-26.186667-10.709333-61.301333-15.456-97.024-16.448 45.386667-1.194667 93.610667 2.72 127.168 16.448 29.077333 11.904 38.165333 39.626667 44.586667 71.754667-5.941333-5.088-17.664-11.168-33.984-16.906667z" fill="#0F956D" p-id="11015"></path><path d="M517.173333 376.352c-46.677333 0-97.738667 13.056-117.205333 19.541333a10.666667 10.666667 0 1 1-6.741333-20.234666c20.725333-6.912 74.176-20.64 123.946666-20.64a10.666667 10.666667 0 1 1 0 21.333333z" fill="#38EFB8" p-id="11016"></path></svg>