<?xml version="1.0" standalone="no"?><!DOCTYPE svg PUBLIC "-//W3C//DTD SVG 1.1//EN" "http://www.w3.org/Graphics/SVG/1.1/DTD/svg11.dtd"><svg height="1024" node-id="1" sillyvg="true" template-height="1024" template-width="1024" version="1.1" viewBox="0 0 1024 1024" width="1024" xmlns="http://www.w3.org/2000/svg" xmlns:xlink="http://www.w3.org/1999/xlink"><defs node-id="67"><clipPath id="clip0_2_21270" node-id="62"><path d="M 0.00 0.00 L 1024.00 0.00 L 1024.00 1024.00 L 0.00 1024.00 Z" fill="#000000" fill-rule="nonzero" node-id="70" stroke="none" target-height="1024" target-width="1024" target-x="0" target-y="0"></path></clipPath><clipPath id="clip1_2_21270" node-id="64"><path d="M 0.00 0.00 L 987.18 0.00 L 987.18 1000.00 L 0.00 1000.00 Z" fill="#000000" fill-rule="nonzero" node-id="74" stroke="none" target-height="1000" target-width="987.18" target-x="0" target-y="0"></path></clipPath></defs><g clip-path="url(#clip0_2_21270)" id="sillyvg_g_0" node-id="78"><path d="M 0.00 0.00 L 1024.00 0.00 L 1024.00 1024.00 L 0.00 1024.00 Z" fill="#ffffff" fill-rule="nonzero" node-id="80" stroke="none" target-height="1024" target-width="1024" target-x="0" target-y="0"></path><g clip-path="url(#clip1_2_21270)" group-id="1" id="sillyvg_g_1" node-id="82"><path d="M -70.00 12.00 L 305.04 12.00 L 295.43 13.32 C 291.84 13.81 291.82 14.36 295.38 14.99 C 338.33 22.47 388.89 29.56 433.12 15.63 C 434.29 15.26 434.79 14.76 434.62 14.14 C 434.44 13.54 433.77 12.83 432.61 12.00 L 917.18 12.00 L 917.18 1012.00 L -70.00 1012.00 L -70.00 12.00 Z M 278.38 896.14 C 285.04 908.11 290.90 916.63 295.94 921.70 C 317.56 943.58 352.78 947.64 377.01 927.13 C 384.76 919.44 390.80 911.22 395.13 902.47 C 395.66 901.41 396.58 900.59 397.71 900.18 C 398.84 899.78 400.08 899.82 401.20 900.29 C 418.72 907.93 436.04 915.02 453.16 921.57 C 474.40 929.74 486.15 930.42 508.33 921.49 C 579.49 892.77 648.33 860.33 717.26 826.74 C 732.96 819.11 747.96 810.28 762.26 800.25 C 768.80 795.67 770.47 789.74 770.64 782.30 C 772.35 701.57 779.06 621.79 778.16 540.85 C 777.99 526.44 777.05 512.09 763.03 503.62 C 745.48 493.05 724.97 482.75 701.50 472.73 C 692.39 468.84 687.56 461.44 693.97 452.64 C 697.69 447.51 705.04 446.40 710.81 442.90 C 713.89 441.05 717.19 437.57 720.73 432.47 C 725.31 425.83 731.04 420.16 737.91 415.46 L 789.02 400.97 C 795.94 399.01 798.05 394.69 795.34 388.03 C 792.61 381.32 782.09 369.05 792.22 362.56 C 803.39 355.35 816.21 349.69 830.68 345.59 C 847.91 340.72 830.60 324.48 825.51 318.75 C 824.14 317.21 823.40 315.22 823.43 313.15 C 823.47 311.09 824.27 309.11 825.68 307.60 C 829.49 303.54 835.68 298.45 836.41 292.94 C 837.56 284.52 825.60 278.80 820.43 274.48 C 819.26 273.51 818.65 272.27 818.59 270.76 L 817.78 251.66 C 818.80 241.26 820.14 230.45 821.79 219.22 C 823.59 207.21 813.03 204.31 804.40 207.85 C 798.73 210.19 789.62 214.56 777.05 220.97 C 760.38 229.48 751.20 223.41 736.37 218.62 C 734.97 218.17 733.69 218.40 732.52 219.31 C 725.38 224.78 715.04 239.14 705.56 233.62 C 696.89 228.61 688.43 223.65 680.17 218.75 C 676.33 216.47 673.46 217.36 671.58 221.40 C 657.99 250.52 638.13 274.38 612.01 292.98 C 610.99 293.71 609.79 294.12 608.53 294.18 C 607.28 294.23 606.04 293.92 604.96 293.28 L 573.21 274.69 C 572.83 274.47 572.53 274.14 572.34 273.74 C 572.15 273.35 572.08 272.91 572.13 272.48 C 572.19 272.04 572.37 271.63 572.65 271.30 C 572.93 270.96 573.30 270.72 573.72 270.59 C 607.39 260.72 637.69 229.99 642.78 194.65 C 647.05 164.69 634.06 138.15 598.76 145.59 C 577.08 150.15 556.47 160.52 536.92 176.70 C 517.56 192.77 511.84 209.95 504.02 232.81 C 503.45 234.52 502.71 234.59 501.80 233.03 C 494.36 219.99 483.16 212.00 481.71 196.32 C 480.17 179.39 479.10 139.26 467.74 127.08 C 454.79 113.24 422.91 119.48 421.58 140.21 C 419.83 167.56 428.55 200.85 433.80 227.90 C 433.86 228.20 433.85 228.52 433.77 228.82 C 433.69 229.12 433.54 229.40 433.33 229.64 C 433.12 229.87 432.87 230.06 432.58 230.18 C 432.29 230.30 431.98 230.35 431.67 230.33 C 421.92 229.68 412.99 232.17 404.87 237.81 C 404.67 238.04 404.20 237.98 403.46 237.64 C 399.40 231.44 400.47 220.89 398.08 213.37 C 393.89 200.33 383.25 195.93 371.75 204.05 C 370.59 204.88 369.72 206.07 369.27 207.43 L 361.32 232.00 C 361.17 232.45 360.91 232.86 360.57 233.19 C 360.23 233.52 359.81 233.76 359.36 233.90 C 358.90 234.04 358.42 234.07 357.95 233.98 C 357.49 233.90 357.04 233.70 356.67 233.41 C 338.63 219.31 321.60 205.12 305.56 190.85 C 281.41 169.35 250.98 188.20 265.56 221.15 C 267.55 225.65 266.23 227.09 261.58 225.46 C 227.22 213.28 218.12 235.29 218.16 263.97 C 218.16 296.62 231.69 322.81 258.76 342.56 C 275.46 356.17 295.60 361.64 319.19 358.97 C 319.84 358.80 320.40 358.77 320.86 358.88 C 322.17 359.19 322.59 359.98 322.14 361.23 C 308.89 398.37 309.40 427.08 320.21 460.85 C 320.70 462.33 320.21 463.35 318.76 463.92 C 289.25 475.12 261.05 488.95 234.19 505.42 C 232.91 506.22 231.58 506.35 230.21 505.80 C 219.27 501.62 202.52 493.84 191.88 499.39 C 172.85 509.34 162.46 523.50 160.73 541.87 C 158.59 564.66 160.78 601.00 167.31 650.89 C 169.70 669.18 176.38 710.13 187.35 773.75 C 191.67 798.71 197.39 804.31 219.27 815.76 C 239.02 826.07 258.82 836.62 278.68 847.38 C 279.99 848.10 280.50 849.18 280.21 850.63 L 277.01 865.76 L 276.32 884.48 C 253.76 873.48 231.14 862.44 208.46 851.36 C 185.21 839.99 166.24 828.33 156.71 800.42 C 142.44 758.45 138.46 721.96 131.97 669.52 C 126.71 627.21 123.12 582.47 124.96 545.12 C 127.01 501.96 157.69 466.06 202.52 465.08 C 213.80 464.82 224.30 464.85 234.02 465.16 C 238.16 465.30 242.25 464.15 245.73 461.87 C 257.69 454.05 281.41 438.88 283.42 423.32 C 284.59 414.09 285.40 405.43 285.86 397.34 C 285.94 395.85 285.54 394.38 284.70 393.14 C 283.87 391.91 282.65 390.98 281.24 390.50 C 248.33 379.39 208.55 353.80 195.30 319.52 C 176.71 271.40 178.76 216.79 225.04 185.21 C 239.23 175.59 236.75 162.30 255.34 155.08 C 291.20 141.10 317.65 155.85 344.96 177.68 C 346.42 178.84 348.23 179.44 350.09 179.39 C 351.94 179.34 353.71 178.62 355.08 177.38 C 364.43 168.95 375.51 165.89 388.33 168.20 C 390.27 168.54 391.11 167.74 390.86 165.80 C 388.55 148.99 389.44 134.78 393.55 123.15 C 406.80 85.38 456.62 78.50 485.77 100.97 C 499.39 111.49 507.28 126.19 509.44 145.08 C 509.54 145.85 509.83 146.59 510.30 147.22 C 510.77 147.85 511.39 148.34 512.11 148.65 C 512.83 148.96 513.62 149.07 514.40 148.98 C 515.17 148.88 515.91 148.58 516.54 148.11 C 546.71 125.38 582.78 110.38 621.24 110.67 C 631.33 110.76 640.97 114.64 650.17 122.30 C 673.33 141.53 674.40 157.94 677.99 185.25 C 678.07 185.90 678.30 186.53 678.65 187.08 C 679.01 187.64 679.48 188.11 680.04 188.45 C 684.06 190.96 688.33 191.84 692.86 191.10 C 713.26 187.77 732.49 186.87 750.56 188.41 C 768.67 189.91 783.50 178.88 796.45 175.33 C 829.74 166.10 858.38 188.97 856.62 222.51 C 856.40 226.84 855.14 233.94 852.86 243.79 C 850.43 254.39 859.79 265.20 865.51 273.15 C 883.21 297.56 869.19 362.08 839.44 374.31 C 837.23 375.21 835.37 376.82 834.16 378.89 C 832.96 380.95 832.47 383.35 832.78 385.72 C 834.44 398.80 831.92 410.46 821.37 419.61 C 802.31 436.06 776.75 442.21 754.91 451.57 C 750.67 453.40 750.71 455.13 755.04 456.79 C 797.22 472.94 814.44 495.42 815.13 541.91 C 816.33 622.26 811.84 703.20 807.74 783.41 C 805.94 818.79 787.86 832.43 756.07 848.28 C 679.44 886.49 600.73 923.20 521.07 954.61 C 485.47 968.62 460.64 965.97 426.92 951.36 C 412.14 944.99 385.51 931.79 376.58 932.94 C 374.50 933.23 373.15 933.87 372.52 934.86 C 370.73 937.68 371.31 939.88 374.27 941.44 C 387.49 948.37 400.90 954.41 414.49 959.56 C 438.68 968.77 452.44 973.81 455.77 974.69 C 488.76 983.33 520.94 970.21 550.81 957.43 C 621.35 927.20 696.08 892.00 775.00 851.83 C 803.12 837.53 818.30 814.76 820.56 783.54 L 822.78 710.93 C 825.71 658.51 827.16 606.09 827.14 553.67 C 827.14 519.22 825.77 488.88 797.48 467.17 C 793.21 463.89 789.10 460.23 785.17 456.19 C 784.03 455.02 784.19 454.08 785.64 453.37 C 805.51 443.88 821.62 436.96 837.78 419.69 C 845.09 411.83 843.85 394.61 851.88 384.86 C 869.74 363.15 882.65 346.62 886.15 314.35 C 889.02 287.94 879.74 274.26 870.51 253.41 C 868.49 248.85 867.76 244.09 868.33 239.14 C 876.79 162.73 818.89 144.18 759.91 174.31 C 757.07 175.76 751.44 175.85 743.03 174.56 C 727.99 172.28 712.76 172.71 697.35 175.85 C 696.49 176.02 695.61 176.01 694.76 175.81 C 693.91 175.61 693.11 175.24 692.41 174.71 C 691.71 174.18 691.14 173.51 690.72 172.74 C 690.31 171.97 690.06 171.12 690.00 170.25 C 688.29 145.83 677.85 125.79 658.67 110.12 C 622.86 80.93 557.44 103.50 525.43 127.34 C 524.96 127.69 524.43 127.92 523.86 128.03 C 523.29 128.14 522.70 128.11 522.14 127.95 C 521.58 127.80 521.06 127.52 520.62 127.13 C 520.19 126.74 519.84 126.26 519.62 125.72 C 503.20 86.03 472.93 70.03 428.80 77.73 C 406.41 81.66 390.81 93.97 382.01 114.65 C 378.12 123.75 376.80 136.70 373.46 147.51 C 373.12 148.65 372.46 149.58 371.50 150.29 C 365.46 154.79 358.85 158.14 351.67 160.33 C 350.92 160.56 350.13 160.62 349.36 160.52 C 348.60 160.42 347.87 160.15 347.22 159.74 C 343.43 157.31 337.69 153.47 330.00 148.20 C 299.14 127.08 247.69 131.36 223.85 161.66 C 217.69 169.46 212.62 175.10 208.63 178.58 C 179.02 204.18 166.37 229.09 170.64 270.50 C 177.35 335.72 211.07 373.58 268.89 400.46 C 269.91 400.94 270.75 401.72 271.28 402.70 C 271.82 403.69 272.03 404.82 271.88 405.93 C 269.79 422.26 253.97 437.86 242.18 448.15 C 233.38 455.85 210.00 450.33 198.50 451.57 C 139.49 457.81 106.15 500.80 110.13 561.14 C 114.57 628.41 118.80 693.79 132.91 762.13 C 142.26 807.47 147.65 834.09 186.54 854.56 C 217.28 870.77 247.89 884.63 278.38 896.14 Z" fill="#fefefe" fill-rule="nonzero" group-id="1" node-id="84" stroke="none" target-height="1000" target-width="987.179" target-x="-70" target-y="12"></path><path d="M 822.78 710.93 L 820.56 783.54 C 818.30 814.76 803.12 837.53 775.00 851.83 C 696.08 892.00 621.35 927.20 550.81 957.43 C 520.94 970.21 488.76 983.33 455.77 974.69 C 452.44 973.81 438.68 968.77 414.49 959.56 C 400.90 954.41 387.49 948.37 374.27 941.44 C 371.31 939.88 370.73 937.68 372.52 934.86 C 373.15 933.87 374.50 933.23 376.58 932.94 C 385.51 931.79 412.14 944.99 426.92 951.36 C 460.64 965.97 485.47 968.62 521.07 954.61 C 600.73 923.20 679.44 886.49 756.07 848.28 C 787.86 832.43 805.94 818.79 807.74 783.41 C 811.84 703.20 816.33 622.26 815.13 541.91 C 814.44 495.42 797.22 472.94 755.04 456.79 C 750.71 455.13 750.67 453.40 754.91 451.57 C 776.75 442.21 802.31 436.06 821.37 419.61 C 831.92 410.46 834.44 398.80 832.78 385.72 C 832.47 383.35 832.96 380.95 834.16 378.89 C 835.37 376.82 837.23 375.21 839.44 374.31 C 869.19 362.08 883.21 297.56 865.51 273.15 C 859.79 265.20 850.43 254.39 852.86 243.79 C 855.14 233.94 856.40 226.84 856.62 222.51 C 858.38 188.97 829.74 166.10 796.45 175.33 C 783.50 178.88 768.67 189.91 750.56 188.41 C 732.49 186.87 713.26 187.77 692.86 191.10 C 688.33 191.84 684.06 190.96 680.04 188.45 C 679.48 188.11 679.01 187.64 678.65 187.08 C 678.30 186.53 678.07 185.90 677.99 185.25 C 674.40 157.94 673.33 141.53 650.17 122.30 C 640.97 114.64 631.33 110.76 621.24 110.67 C 582.78 110.38 546.71 125.38 516.54 148.11 C 515.91 148.58 515.17 148.88 514.40 148.98 C 513.62 149.07 512.83 148.96 512.11 148.65 C 511.39 148.34 510.77 147.85 510.30 147.22 C 509.83 146.59 509.54 145.85 509.44 145.08 C 507.28 126.19 499.39 111.49 485.77 100.97 C 456.62 78.50 406.80 85.38 393.55 123.15 C 389.44 134.78 388.55 148.99 390.86 165.80 C 391.11 167.74 390.27 168.54 388.33 168.20 C 375.51 165.89 364.43 168.95 355.08 177.38 C 353.71 178.62 351.94 179.33 350.09 179.39 C 348.23 179.44 346.42 178.84 344.96 177.68 C 317.65 155.85 291.20 141.10 255.34 155.08 C 236.75 162.30 239.23 175.59 225.04 185.21 C 178.76 216.79 176.71 271.40 195.30 319.52 C 208.55 353.80 248.33 379.39 281.24 390.50 C 282.65 390.98 283.87 391.91 284.70 393.14 C 285.54 394.38 285.94 395.85 285.86 397.34 C 285.40 405.43 284.59 414.09 283.42 423.32 C 281.41 438.88 257.69 454.05 245.73 461.87 C 242.25 464.15 238.16 465.30 234.02 465.16 C 224.30 464.85 213.80 464.82 202.52 465.08 C 157.69 466.06 127.01 501.96 124.96 545.12 C 123.12 582.47 126.71 627.21 131.97 669.52 C 138.46 721.96 142.44 758.45 156.71 800.42 C 166.24 828.33 185.21 839.99 208.46 851.36 C 231.14 862.44 253.76 873.48 276.32 884.48 L 278.38 896.14 C 247.89 884.63 217.28 870.77 186.54 854.56 C 147.65 834.09 142.26 807.47 132.91 762.13 C 118.80 693.79 114.57 628.41 110.13 561.14 C 106.15 500.80 139.49 457.81 198.50 451.57 C 210.00 450.33 233.38 455.85 242.18 448.15 C 253.97 437.86 269.79 422.26 271.88 405.93 C 272.03 404.82 271.82 403.69 271.28 402.70 C 270.75 401.72 269.91 400.94 268.89 400.46 C 211.07 373.58 177.35 335.72 170.64 270.50 C 166.37 229.09 179.02 204.18 208.63 178.58 C 212.62 175.10 217.69 169.46 223.85 161.66 C 247.69 131.36 299.14 127.08 330.00 148.20 C 337.69 153.47 343.43 157.31 347.22 159.74 C 347.87 160.15 348.60 160.42 349.36 160.52 C 350.13 160.62 350.92 160.56 351.67 160.33 C 358.85 158.14 365.46 154.79 371.50 150.29 C 372.46 149.58 373.12 148.65 373.46 147.51 C 376.80 136.70 378.12 123.75 382.01 114.65 C 390.81 93.97 406.41 81.66 428.80 77.73 C 472.93 70.03 503.20 86.03 519.62 125.72 C 519.84 126.26 520.19 126.74 520.62 127.13 C 521.06 127.52 521.58 127.80 522.14 127.95 C 522.70 128.11 523.29 128.14 523.86 128.03 C 524.43 127.92 524.96 127.69 525.43 127.34 C 557.44 103.50 622.86 80.93 658.67 110.12 C 677.85 125.79 688.29 145.83 690.00 170.25 C 690.06 171.12 690.31 171.97 690.72 172.74 C 691.14 173.51 691.71 174.18 692.41 174.71 C 693.11 175.24 693.91 175.61 694.76 175.81 C 695.61 176.01 696.49 176.02 697.35 175.85 C 712.76 172.71 727.99 172.28 743.03 174.56 C 751.44 175.85 757.07 175.76 759.91 174.31 C 818.89 144.18 876.79 162.73 868.33 239.14 C 867.76 244.09 868.49 248.85 870.51 253.41 C 879.74 274.26 889.02 287.94 886.15 314.35 C 882.65 346.62 869.74 363.15 851.88 384.86 C 843.85 394.61 845.09 411.83 837.78 419.69 C 821.62 436.96 805.51 443.88 785.64 453.37 C 784.19 454.08 784.03 455.02 785.17 456.19 C 789.10 460.23 793.21 463.89 797.48 467.17 C 825.77 488.88 827.14 519.22 827.14 553.67 C 827.16 606.09 825.71 658.51 822.78 710.93 Z" fill="#f3c094" fill-rule="nonzero" group-id="1" node-id="86" stroke="none" target-height="913.2909" target-width="782.86304" target-x="106.154" target-y="70.0341"></path><path d="M 817.78 251.66 C 814.87 253.03 812.42 253.62 810.43 253.45 C 809.66 253.38 808.96 253.03 808.44 252.47 C 807.93 251.90 807.65 251.17 807.65 250.42 L 807.65 236.32 C 807.65 234.98 808.16 233.87 809.19 232.98 C 812.86 229.79 814.02 225.60 812.65 220.42 C 812.28 218.91 811.34 218.03 809.83 217.77 C 807.01 217.28 804.35 218.58 801.84 221.66 C 784.17 232.57 764.74 236.83 743.55 234.44 C 742.16 234.27 740.75 234.54 739.53 235.21 C 729.56 240.68 722.72 243.75 719.02 244.44 C 703.93 247.17 698.97 239.44 688.29 233.71 C 687.45 233.25 686.53 232.97 685.58 232.89 C 684.63 232.80 683.67 232.92 682.77 233.22 C 681.86 233.52 681.03 234.00 680.32 234.64 C 679.60 235.27 679.03 236.05 678.63 236.91 C 668.16 259.56 640.00 284.82 620.64 300.80 C 619.90 301.42 619.28 302.17 618.83 303.03 C 618.38 303.88 618.10 304.82 618.01 305.78 C 617.93 306.74 618.03 307.71 618.32 308.63 C 618.61 309.55 619.08 310.41 619.70 311.14 L 638.50 333.62 C 643.69 334.51 647.71 335.97 650.56 338.03 C 651.61 338.77 652.75 338.99 653.97 338.71 C 666.94 335.58 677.04 338.18 684.27 346.53 C 688.38 361.66 668.21 365.55 657.86 368.03 C 657.26 368.17 656.72 368.52 656.35 369.02 C 655.99 369.52 655.81 370.14 655.86 370.76 L 658.72 406.14 C 655.51 389.26 654.57 374.01 644.96 359.01 C 634.14 342.09 626.50 321.40 610.00 309.56 C 600.88 303.01 588.16 295.09 571.84 285.80 C 551.45 274.14 532.44 273.84 505.00 271.87 C 503.55 271.76 502.76 272.44 502.65 273.92 C 501.85 284.04 497.26 293.57 488.89 302.51 C 489.71 297.21 490.71 292.44 491.88 288.20 C 495.30 275.63 495.47 263.28 498.89 250.80 C 499.71 247.87 499.35 245.38 497.78 243.32 C 496.92 242.19 496.48 240.92 496.45 239.52 C 496.15 231.57 488.55 224.52 483.68 218.75 C 481.51 216.16 480.57 216.54 480.86 219.91 C 481.00 221.93 480.43 223.68 479.14 225.16 C 478.23 226.25 477.82 227.48 477.91 228.88 L 481.80 282.21 C 481.91 283.84 481.21 284.96 479.70 285.59 C 477.14 286.62 474.64 286.54 472.22 285.38 C 473.33 266.06 472.91 246.87 470.94 227.81 C 470.43 222.77 473.85 217.64 473.80 212.04 C 473.52 182.98 470.48 159.95 464.70 142.94 C 457.14 120.59 424.02 125.42 428.63 152.00 C 435.24 190.21 440.50 227.53 444.40 263.97 L 455.26 291.44 C 455.42 291.91 455.41 292.42 455.21 292.86 C 454.07 295.59 451.94 295.29 448.80 291.96 L 427.22 240.72 C 426.85 239.83 426.29 239.03 425.58 238.38 C 424.88 237.72 424.04 237.22 423.13 236.91 C 422.22 236.60 421.25 236.49 420.29 236.57 C 419.33 236.66 418.40 236.95 417.56 237.43 C 411.72 240.73 407.49 240.86 404.87 237.81 C 412.99 232.17 421.92 229.68 431.67 230.33 C 431.98 230.35 432.29 230.30 432.58 230.18 C 432.87 230.06 433.12 229.87 433.33 229.64 C 433.54 229.40 433.69 229.12 433.77 228.82 C 433.85 228.52 433.86 228.20 433.80 227.90 C 428.55 200.85 419.83 167.56 421.58 140.21 C 422.91 119.48 454.79 113.24 467.74 127.09 C 479.10 139.26 480.17 179.39 481.71 196.32 C 483.16 212.00 494.36 219.99 501.80 233.03 C 502.71 234.59 503.45 234.52 504.02 232.81 C 511.84 209.95 517.56 192.77 536.92 176.70 C 556.47 160.52 577.08 150.15 598.76 145.59 C 634.06 138.15 647.05 164.69 642.78 194.65 C 637.69 229.99 607.39 260.72 573.72 270.59 C 573.30 270.72 572.93 270.96 572.65 271.30 C 572.37 271.63 572.19 272.04 572.13 272.48 C 572.08 272.91 572.15 273.35 572.34 273.74 C 572.53 274.14 572.83 274.47 573.21 274.69 L 604.96 293.28 C 606.04 293.92 607.28 294.23 608.53 294.18 C 609.79 294.12 610.99 293.71 612.01 292.98 C 638.13 274.38 657.99 250.52 671.58 221.40 C 673.46 217.36 676.33 216.47 680.17 218.75 C 688.43 223.65 696.89 228.61 705.56 233.62 C 715.04 239.14 725.38 224.78 732.52 219.31 C 733.69 218.40 734.97 218.17 736.37 218.62 C 751.20 223.41 760.38 229.48 777.05 220.97 C 789.62 214.56 798.73 210.19 804.40 207.85 C 813.03 204.31 823.59 207.21 821.79 219.22 C 820.14 230.45 818.80 241.26 817.78 251.66 Z M 507.05 255.08 L 505.60 254.95 C 504.94 254.92 504.74 254.59 505.00 253.97 C 505.34 253.25 505.27 252.67 504.79 252.21 C 504.53 251.96 504.39 252.00 504.36 252.34 L 503.55 264.26 C 503.52 264.54 503.59 264.82 503.75 265.05 C 503.91 265.29 504.14 265.45 504.41 265.53 C 504.68 265.61 504.97 265.58 505.23 265.47 C 505.48 265.36 505.69 265.16 505.81 264.91 L 506.75 263.07 C 507.38 261.87 508.31 261.54 509.53 262.09 C 528.46 270.16 558.08 266.32 576.97 261.32 C 586.45 258.80 593.63 253.07 602.39 248.37 C 604.05 247.48 604.91 246.09 605.00 244.18 C 605.06 242.73 605.73 241.66 607.01 240.97 C 612.22 238.15 615.77 234.71 617.65 230.63 C 619.99 225.56 622.32 221.32 624.66 217.90 C 628.65 212.06 631.01 207.93 631.75 205.50 C 636.62 189.35 637.74 153.97 610.73 155.68 C 558.08 159.09 517.78 205.85 507.56 254.69 C 507.51 254.98 507.34 255.10 507.05 255.08 Z M 678.29 345.46 C 670.34 339.82 661.74 339.31 652.48 343.92 C 650.95 344.69 649.67 345.88 648.79 347.35 C 647.91 348.82 647.48 350.52 647.53 352.23 C 647.59 353.94 648.13 355.60 649.10 357.01 C 650.06 358.43 651.41 359.54 652.99 360.20 C 664.47 365.05 673.33 362.04 679.57 351.19 C 680.12 350.25 680.29 349.15 680.05 348.09 C 679.81 347.03 679.18 346.09 678.29 345.46 Z" fill="#2a191a" fill-rule="nonzero" group-id="1" node-id="88" stroke="none" target-height="292.906" target-width="418.71802" target-x="404.872" target-y="113.239"></path><path d="M 472.22 285.38 C 469.03 282.16 465.74 279.95 462.35 278.75 C 460.93 278.27 459.79 277.41 458.93 276.19 C 454.77 270.15 449.93 266.07 444.40 263.97 C 440.50 227.53 435.24 190.21 428.63 152.00 C 424.02 125.42 457.14 120.59 464.70 142.94 C 470.48 159.95 473.52 182.98 473.80 212.04 C 473.85 217.64 470.43 222.77 470.94 227.81 C 472.91 246.87 473.33 266.06 472.22 285.38 Z" fill="#ac5035" fill-rule="nonzero" group-id="1" node-id="90" stroke="none" target-height="164.78601" target-width="49.82901" target-x="424.017" target-y="120.59"></path><path d="M 507.56 254.69 C 517.78 205.85 558.08 159.09 610.73 155.68 C 637.74 153.97 636.62 189.35 631.75 205.50 C 631.01 207.93 628.65 212.06 624.66 217.90 C 622.32 221.32 619.99 225.56 617.65 230.63 C 615.77 234.71 612.22 238.15 607.01 240.97 C 605.73 241.66 605.06 242.73 605.00 244.18 C 604.91 246.09 604.05 247.48 602.39 248.37 C 593.63 253.07 586.45 258.80 576.97 261.32 C 558.08 266.32 528.46 270.16 509.53 262.09 C 508.31 261.54 507.38 261.87 506.75 263.07 L 505.81 264.91 C 505.69 265.16 505.48 265.36 505.23 265.47 C 504.97 265.58 504.68 265.61 504.41 265.53 C 504.14 265.45 503.91 265.29 503.75 265.05 C 503.59 264.82 503.52 264.54 503.55 264.26 L 504.36 252.34 C 504.39 252.00 504.53 251.96 504.79 252.21 C 505.27 252.67 505.34 253.25 505.00 253.97 C 504.74 254.59 504.94 254.92 505.60 254.95 L 507.05 255.08 C 507.34 255.10 507.51 254.98 507.56 254.69 Z M 534.14 254.65 C 579.53 260.08 618.50 234.35 619.45 186.23 C 619.45 185.60 619.29 184.99 618.99 184.43 C 618.69 183.88 618.26 183.41 617.74 183.07 C 612.09 179.45 606.85 178.37 602.01 179.82 C 568.36 189.85 543.82 211.33 528.38 244.26 C 527.89 245.32 527.65 246.48 527.70 247.64 C 527.74 248.80 528.05 249.93 528.62 250.95 C 529.18 251.96 529.97 252.82 530.93 253.47 C 531.90 254.11 533.00 254.52 534.14 254.65 Z" fill="#f14e1f" fill-rule="nonzero" group-id="1" node-id="92" stroke="none" target-height="116.195984" target-width="134.21399" target-x="503.521" target-y="153.966"></path><path d="M 619.44 186.23 C 618.50 234.35 579.53 260.08 534.14 254.65 C 533.00 254.52 531.90 254.11 530.93 253.47 C 529.97 252.82 529.18 251.96 528.62 250.95 C 528.05 249.93 527.74 248.80 527.70 247.64 C 527.65 246.48 527.89 245.32 528.38 244.26 C 543.82 211.33 568.36 189.85 602.01 179.82 C 606.85 178.37 612.09 179.45 617.74 183.07 C 618.26 183.41 618.69 183.88 618.99 184.43 C 619.29 184.98 619.45 185.60 619.44 186.23 Z" fill="#fef6eb" fill-rule="nonzero" group-id="1" node-id="94" stroke="none" target-height="81.709" target-width="91.79199" target-x="527.654" target-y="178.368"></path><path d="M 403.46 237.64 C 403.03 239.38 403.39 240.78 404.53 241.83 C 406.50 243.62 407.52 244.56 407.61 244.65 L 441.37 295.42 C 442.05 295.99 442.41 296.74 442.44 297.68 C 442.44 298.37 442.11 298.77 441.45 298.88 C 440.91 298.94 440.54 299.18 440.34 299.61 C 426.71 294.05 415.00 287.38 399.74 287.26 C 398.31 287.26 396.92 287.75 395.81 288.67 C 368.76 311.02 338.59 331.83 328.68 368.75 C 316.97 412.38 319.83 456.66 350.21 491.92 C 375.30 527.73 416.50 560.80 460.51 570.03 C 487.86 576.13 516.51 575.65 546.45 568.58 C 612.26 553.03 653.85 490.63 658.93 426.44 L 659.36 410.08 C 659.42 408.00 660.16 407.73 661.58 409.26 C 665.81 413.88 664.74 427.73 665.09 434.01 C 665.86 447.56 659.10 460.76 656.45 474.01 C 656.17 475.49 656.78 476.33 658.29 476.53 C 668.21 477.70 677.99 476.93 687.65 474.22 C 689.19 473.80 689.69 472.83 689.14 471.32 C 686.33 463.74 686.65 456.36 690.13 449.18 C 696.20 444.31 703.55 444.35 708.76 439.95 C 714.74 434.88 719.67 428.88 723.55 421.96 C 724.12 420.93 724.80 420.13 725.60 419.56 C 726.20 419.14 726.84 418.78 727.52 418.50 C 728.12 418.27 728.66 417.92 729.12 417.47 C 729.58 417.02 729.96 416.49 730.21 415.89 C 732.07 411.44 734.63 411.30 737.91 415.46 C 731.04 420.16 725.31 425.83 720.73 432.47 C 717.19 437.57 713.89 441.05 710.81 442.90 C 705.04 446.40 697.69 447.51 693.97 452.64 C 687.56 461.44 692.39 468.84 701.50 472.73 C 724.97 482.75 745.48 493.05 763.03 503.62 C 777.05 512.09 777.99 526.45 778.16 540.85 C 779.06 621.79 772.35 701.57 770.64 782.30 C 770.47 789.74 768.80 795.67 762.26 800.25 C 747.96 810.28 732.96 819.11 717.26 826.74 C 648.33 860.33 579.49 892.77 508.33 921.49 C 486.15 930.42 474.40 929.74 453.16 921.57 C 436.04 915.02 418.72 907.93 401.20 900.29 C 400.08 899.82 398.84 899.78 397.71 900.18 C 396.58 900.59 395.66 901.41 395.13 902.47 C 390.80 911.22 384.76 919.44 377.01 927.13 C 376.21 926.19 375.68 924.68 375.43 922.60 L 389.10 903.15 C 390.90 903.58 392.38 902.78 393.55 900.76 C 394.13 899.73 394.35 898.55 394.19 897.38 C 393.88 894.99 394.47 892.90 395.98 891.10 C 396.41 890.59 396.91 890.18 397.48 889.86 C 398.39 889.41 398.72 889.54 398.46 890.25 C 398.34 890.61 398.33 891.00 398.45 891.36 C 398.56 891.72 398.79 892.04 399.10 892.26 C 406.74 897.67 411.85 898.45 414.44 894.61 C 441.80 907.97 460.16 915.58 469.53 917.43 C 484.66 920.39 494.90 914.88 500.26 900.89 C 517.26 856.49 527.52 815.46 539.23 771.74 C 554.32 715.33 580.64 678.07 626.20 640.08 C 627.45 639.02 627.58 637.86 626.58 636.57 C 618.43 625.75 608.35 616.90 596.33 610.03 C 582.35 599.14 553.80 577.17 535.43 578.92 C 519.42 580.43 503.35 581.17 487.22 581.14 C 473.63 581.10 460.56 576.70 447.05 573.92 L 406.24 554.52 C 405.64 554.24 405.12 553.82 404.71 553.29 C 404.30 552.77 404.02 552.15 403.89 551.49 C 403.40 549.01 401.85 548.14 399.23 548.88 C 398.15 549.16 397.26 548.88 396.58 548.03 C 394.67 545.58 392.21 544.98 389.19 546.23 C 363.25 527.17 345.04 503.45 328.29 476.36 C 328.03 475.94 327.69 475.57 327.28 475.28 C 326.87 474.99 326.41 474.79 325.93 474.68 C 325.44 474.57 324.94 474.56 324.45 474.65 C 323.96 474.74 323.49 474.93 323.08 475.20 L 304.02 487.90 C 284.30 490.83 265.65 498.78 248.08 511.74 C 245.80 512.09 243.36 513.18 240.77 515.03 L 234.49 515.55 C 233.06 515.66 231.68 515.42 230.34 514.82 L 217.01 508.62 C 202.19 503.67 190.03 507.06 180.51 518.79 C 172.96 527.60 169.44 538.15 169.96 550.46 C 171.71 593.62 174.19 631.32 181.45 674.09 C 187.91 712.13 194.19 749.82 203.16 787.38 C 204.04 791.01 206.25 794.18 209.36 796.27 L 234.27 812.94 C 234.60 813.16 234.98 813.29 235.38 813.32 C 235.77 813.34 236.17 813.26 236.52 813.08 C 236.87 812.90 237.17 812.63 237.38 812.30 C 237.60 811.97 237.72 811.58 237.74 811.19 C 238.63 786.40 235.56 758.92 235.64 737.00 C 235.73 701.19 235.63 665.36 235.34 629.52 C 235.21 617.56 248.16 611.62 256.62 605.72 C 257.19 606.17 257.68 606.82 258.08 607.64 L 240.68 619.78 C 238.75 620.97 237.78 622.80 237.78 625.25 C 237.69 688.35 239.20 750.52 242.31 811.74 C 242.40 813.34 242.91 814.88 243.80 816.21 C 244.69 817.54 245.91 818.61 247.35 819.31 L 281.62 835.72 C 282.88 836.32 283.96 836.09 284.87 835.03 L 290.98 828.07 C 294.00 827.96 295.58 829.29 295.73 832.09 C 294.33 832.65 293.31 833.57 292.65 834.82 C 291.91 836.22 292.05 837.53 293.08 838.75 L 294.49 840.50 C 285.90 846.19 285.86 853.92 281.32 861.62 C 279.87 865.66 278.43 867.04 277.01 865.76 L 280.21 850.63 C 280.50 849.18 279.99 848.10 278.68 847.38 C 258.82 836.62 239.02 826.07 219.27 815.76 C 197.39 804.31 191.67 798.71 187.35 773.75 C 176.38 710.13 169.70 669.18 167.31 650.89 C 160.78 601.00 158.59 564.66 160.73 541.87 C 162.46 523.50 172.85 509.34 191.88 499.39 C 202.52 493.84 219.27 501.62 230.21 505.80 C 231.58 506.35 232.91 506.22 234.19 505.42 C 261.05 488.95 289.25 475.12 318.76 463.92 C 320.21 463.35 320.70 462.33 320.21 460.85 C 309.40 427.09 308.89 398.37 322.14 361.23 C 322.59 359.98 322.17 359.19 320.86 358.88 C 320.40 358.77 319.84 358.80 319.19 358.97 L 318.93 355.50 C 318.85 354.39 319.25 353.50 320.13 352.81 L 325.08 349.09 C 326.14 348.30 326.61 347.24 326.50 345.93 C 326.30 344.02 325.58 342.17 324.36 340.38 C 329.77 339.01 335.48 334.42 341.50 326.62 C 346.31 323.91 351.64 319.11 357.48 312.21 C 357.95 311.67 358.27 311.00 358.40 310.29 C 358.54 309.58 358.48 308.84 358.25 308.15 C 356.11 301.83 352.32 295.65 346.88 289.61 C 320.36 260.40 288.63 241.13 251.71 231.79 C 219.23 223.58 225.81 272.04 230.04 287.94 C 229.47 297.11 231.37 304.48 235.73 310.03 C 247.35 324.91 255.03 335.75 258.76 342.56 C 231.69 322.81 218.16 296.62 218.16 263.97 C 218.12 235.29 227.22 213.28 261.58 225.46 C 266.23 227.09 267.55 225.65 265.56 221.15 C 250.98 188.20 281.41 169.35 305.56 190.85 C 321.60 205.12 338.63 219.31 356.67 233.41 C 357.04 233.70 357.49 233.90 357.95 233.98 C 358.42 234.07 358.90 234.04 359.36 233.90 C 359.81 233.76 360.23 233.52 360.57 233.19 C 360.91 232.86 361.17 232.45 361.32 232.00 L 369.27 207.43 C 369.72 206.07 370.59 204.88 371.75 204.05 C 383.25 195.93 393.89 200.33 398.08 213.37 C 400.47 220.89 399.40 231.44 403.46 237.64 Z M 393.33 218.37 C 392.42 212.81 389.20 210.45 383.68 211.27 C 382.23 211.49 380.85 212.05 379.66 212.91 C 378.48 213.78 377.52 214.91 376.88 216.23 C 372.49 225.26 369.69 236.54 368.46 250.08 C 368.18 250.53 367.76 250.92 367.22 251.23 C 366.08 251.89 365.06 251.74 364.14 250.80 C 344.53 230.50 319.49 216.49 298.85 198.11 C 291.98 192.01 284.12 190.16 275.26 192.56 C 273.38 193.07 271.74 194.23 270.63 195.83 C 269.52 197.43 269.01 199.38 269.19 201.32 C 270.64 216.27 275.47 227.00 289.23 235.29 C 319.79 253.71 348.46 268.37 366.97 300.29 C 367.17 300.65 367.45 300.96 367.78 301.21 C 368.11 301.46 368.48 301.63 368.88 301.73 C 369.29 301.83 369.71 301.85 370.12 301.79 C 370.53 301.72 370.93 301.58 371.28 301.36 C 384.33 293.52 392.66 282.30 396.28 267.68 C 397.78 261.62 394.53 258.62 394.70 253.45 C 395.13 241.72 394.67 230.02 393.33 218.37 Z M 403.55 277.94 L 417.52 281.14 C 421.17 281.97 421.91 280.86 419.74 277.81 L 403.33 254.69 C 403.14 254.44 402.88 254.25 402.57 254.16 C 402.27 254.07 401.94 254.07 401.64 254.18 C 401.34 254.28 401.08 254.48 400.90 254.74 C 400.72 255.00 400.63 255.31 400.64 255.63 C 400.70 257.17 401.25 258.52 402.31 259.69 C 403.31 260.77 403.56 262.03 403.08 263.45 L 400.17 271.83 C 399.95 272.45 399.87 273.12 399.93 273.78 C 399.99 274.44 400.18 275.08 400.50 275.65 C 400.82 276.23 401.25 276.73 401.78 277.13 C 402.30 277.52 402.91 277.80 403.55 277.94 Z M 651.24 568.45 L 693.12 582.68 C 693.83 582.93 694.60 582.99 695.35 582.85 C 696.10 582.70 696.80 582.37 697.39 581.87 L 762.05 526.96 C 762.94 526.20 763.64 525.25 764.11 524.18 C 764.57 523.10 764.78 521.94 764.72 520.78 C 764.65 519.61 764.32 518.48 763.75 517.47 C 763.17 516.46 762.38 515.60 761.41 514.95 C 743.77 503.07 723.67 493.04 701.11 484.86 C 698.92 480.82 693.67 479.05 685.38 479.56 C 675.75 480.16 666.97 479.76 659.02 478.37 C 655.77 477.80 653.35 478.97 651.75 481.87 C 645.14 493.98 638.40 505.38 631.54 516.06 C 624.14 527.56 615.00 535.89 604.96 545.12 C 604.73 545.32 604.56 545.58 604.46 545.87 C 604.36 546.15 604.34 546.46 604.39 546.76 C 604.44 547.05 604.57 547.34 604.75 547.57 C 604.94 547.81 605.19 548.00 605.47 548.11 L 651.24 568.45 Z M 723.25 810.50 C 739.83 803.95 750.40 798.41 754.96 793.88 C 764.27 784.61 761.07 755.25 760.77 737.09 C 760.68 732.81 764.06 729.86 764.02 725.12 C 763.21 680.55 766.97 635.67 766.92 591.96 C 766.89 572.41 767.26 552.36 768.03 531.79 C 768.05 531.53 767.99 531.28 767.87 531.05 C 767.75 530.82 767.57 530.63 767.35 530.50 C 767.13 530.37 766.88 530.30 766.62 530.30 C 766.37 530.30 766.12 530.37 765.90 530.50 C 742.05 544.39 722.35 565.76 701.24 582.90 C 700.76 583.28 700.40 583.79 700.21 584.37 C 700.01 584.95 699.98 585.57 700.12 586.17 C 700.26 586.76 700.57 587.31 701.01 587.75 C 701.45 588.18 702.00 588.49 702.61 588.62 C 715.21 591.49 718.93 599.18 719.53 611.91 C 720.27 627.58 720.46 639.15 720.09 646.62 C 717.65 695.93 715.90 743.79 709.40 792.86 C 708.52 799.66 708.16 806.46 708.33 813.24 C 708.35 813.82 708.50 814.40 708.76 814.92 C 709.03 815.44 709.40 815.90 709.86 816.25 C 710.33 816.61 710.86 816.87 711.43 817.00 C 712.00 817.12 712.59 817.13 713.16 817.00 C 715.73 816.46 717.96 815.08 719.87 812.86 C 720.81 811.80 721.94 811.02 723.25 810.50 Z M 599.96 608.20 L 633.08 636.87 C 637.01 644.34 638.73 653.67 638.25 664.86 C 635.63 728.74 630.73 792.58 623.55 856.40 C 623.35 858.23 624.07 858.75 625.73 857.98 L 697.22 824.74 C 698.43 824.16 699.38 823.15 699.87 821.91 C 701.04 819.15 701.77 816.26 702.05 813.24 C 708.92 744.15 712.78 674.81 713.63 605.21 C 713.63 603.75 713.15 602.47 712.18 601.36 C 706.28 594.66 699.33 589.88 691.33 587.00 L 648.12 571.27 C 634.50 563.58 619.82 557.70 604.06 553.62 C 600.13 552.60 597.28 552.67 595.51 553.84 C 579.87 564.35 566.54 568.88 550.94 574.05 C 549.72 574.45 549.64 575.01 550.73 575.72 L 599.96 608.20 Z M 538.08 801.36 C 537.93 801.47 537.81 801.60 537.69 801.74 C 537.52 801.97 537.39 802.24 537.31 802.56 C 528.53 840.11 516.52 876.69 501.28 912.30 C 500.51 914.09 501.05 914.74 502.91 914.22 C 526.07 907.77 548.21 894.52 567.22 886.74 C 582.39 880.55 601.58 874.48 614.40 864.35 C 615.45 863.52 616.18 862.36 616.45 861.06 C 619.13 849.07 620.80 836.97 621.45 824.78 C 623.21 792.90 625.21 772.56 626.41 746.40 C 626.79 738.75 629.40 730.55 629.79 723.54 C 631.10 697.90 631.61 672.07 631.33 646.06 C 631.32 645.61 631.18 645.17 630.94 644.78 C 630.69 644.40 630.35 644.10 629.94 643.90 C 629.53 643.71 629.08 643.63 628.63 643.68 C 628.18 643.73 627.75 643.90 627.39 644.18 C 611.84 656.62 598.89 675.67 585.09 690.38 C 577.62 698.38 568.83 713.00 558.72 734.22 C 552.56 747.16 545.84 769.26 538.55 800.55 C 538.49 800.83 538.33 801.10 538.08 801.36 Z" fill="#260f13" fill-rule="nonzero" group-id="1" node-id="96" stroke="none" target-height="761.068" target-width="620.47" target-x="158.59" target-y="169.351"></path><path d="M 368.46 250.08 C 374.81 252.84 381.81 253.47 389.44 251.96 C 391.87 251.47 392.68 250.01 391.88 247.56 C 391.47 246.31 391.50 244.97 391.97 243.75 C 394.25 237.97 393.79 232.66 390.60 227.81 C 389.74 226.50 389.77 225.21 390.68 223.92 C 391.99 222.07 392.88 220.22 393.33 218.37 C 394.67 230.02 395.13 241.72 394.70 253.45 C 394.53 258.62 397.78 261.62 396.28 267.68 C 392.66 282.30 384.33 293.52 371.28 301.36 C 370.93 301.58 370.53 301.72 370.12 301.79 C 369.71 301.85 369.29 301.83 368.88 301.73 C 368.48 301.63 368.11 301.46 367.78 301.21 C 367.45 300.96 367.17 300.65 366.97 300.29 C 348.46 268.37 319.79 253.71 289.23 235.29 C 275.47 227.00 270.64 216.27 269.19 201.32 C 269.01 199.38 269.52 197.43 270.63 195.83 C 271.74 194.23 273.38 193.07 275.26 192.56 C 284.12 190.16 291.98 192.01 298.85 198.11 C 319.49 216.49 344.53 230.50 364.14 250.80 C 365.06 251.74 366.08 251.89 367.22 251.23 C 367.76 250.92 368.18 250.53 368.46 250.08 Z" fill="#a94133" fill-rule="nonzero" group-id="1" node-id="98" stroke="none" target-height="111.68999" target-width="128.76901" target-x="269.009" target-y="190.162"></path><path d="M 393.33 218.37 C 392.88 220.22 391.99 222.07 390.68 223.92 C 389.77 225.21 389.74 226.50 390.60 227.81 C 393.79 232.66 394.25 237.97 391.97 243.75 C 391.50 244.97 391.47 246.31 391.88 247.56 C 392.68 250.01 391.87 251.47 389.44 251.96 C 381.81 253.47 374.81 252.84 368.46 250.08 C 369.69 236.54 372.49 225.26 376.88 216.23 C 377.52 214.91 378.48 213.78 379.66 212.91 C 380.85 212.05 382.23 211.49 383.68 211.27 C 389.20 210.45 392.42 212.81 393.33 218.37 Z" fill="#ac5035" fill-rule="nonzero" group-id="1" node-id="100" stroke="none" target-height="43.01999" target-width="25.783997" target-x="368.461" target-y="210.447"></path><path d="M 488.89 302.51 C 485.10 308.15 475.47 310.43 460.00 309.35 C 451.71 308.78 445.16 305.53 440.34 299.61 C 440.54 299.18 440.91 298.94 441.45 298.88 C 442.11 298.77 442.44 298.37 442.44 297.68 C 442.41 296.74 442.05 295.99 441.37 295.42 C 446.07 296.36 448.55 295.20 448.80 291.96 C 451.94 295.29 454.07 295.59 455.21 292.86 C 455.41 292.42 455.42 291.91 455.26 291.44 L 444.40 263.97 C 449.93 266.07 454.77 270.15 458.93 276.19 C 459.79 277.41 460.93 278.27 462.35 278.75 C 465.74 279.95 469.03 282.16 472.22 285.38 C 474.64 286.54 477.14 286.62 479.70 285.59 C 481.21 284.96 481.91 283.84 481.80 282.21 L 477.91 228.88 C 477.82 227.48 478.23 226.25 479.14 225.16 C 480.43 223.68 481.00 221.93 480.86 219.91 C 480.57 216.54 481.51 216.16 483.68 218.75 C 488.55 224.52 496.15 231.57 496.45 239.52 C 496.48 240.92 496.92 242.19 497.78 243.32 C 499.35 245.38 499.71 247.87 498.89 250.80 C 495.47 263.28 495.30 275.63 491.88 288.20 C 490.71 292.44 489.71 297.21 488.89 302.51 Z" fill="#f14e1f" fill-rule="nonzero" group-id="1" node-id="102" stroke="none" target-height="94.27402" target-width="59.372986" target-x="440.342" target-y="216.159"></path><path d="M 817.78 251.66 L 818.59 270.76 C 818.65 272.27 819.26 273.51 820.43 274.48 C 825.60 278.80 837.56 284.52 836.41 292.94 C 835.68 298.45 829.49 303.54 825.68 307.60 C 824.27 309.11 823.47 311.09 823.43 313.15 C 823.40 315.22 824.14 317.21 825.51 318.75 C 830.60 324.48 847.91 340.72 830.68 345.59 C 816.21 349.69 803.39 355.35 792.22 362.56 C 782.09 369.05 792.61 381.32 795.34 388.03 C 798.05 394.69 795.94 399.01 789.02 400.97 L 737.91 415.46 C 734.63 411.30 732.07 411.44 730.21 415.89 C 729.96 416.49 729.58 417.02 729.12 417.47 C 728.66 417.92 728.12 418.27 727.52 418.50 C 726.84 418.78 726.20 419.14 725.60 419.56 C 724.80 420.13 724.12 420.93 723.55 421.96 C 719.67 428.88 714.74 434.88 708.76 439.95 C 703.55 444.35 696.20 444.31 690.13 449.18 L 691.71 435.89 C 715.90 409.39 744.62 393.31 777.86 387.64 C 783.82 386.62 784.97 383.69 781.33 378.88 C 775.60 371.36 774.26 364.65 777.31 358.75 L 826.79 339.01 C 830.18 337.64 830.18 336.26 826.79 334.86 C 817.91 331.16 812.92 324.34 811.84 314.39 C 808.50 283.84 804.83 258.41 807.69 225.68 C 808.01 222.23 806.05 220.89 801.84 221.66 C 804.35 218.58 807.01 217.28 809.83 217.77 C 811.34 218.03 812.28 218.91 812.65 220.42 C 814.02 225.60 812.86 229.79 809.19 232.98 C 808.16 233.87 807.65 234.98 807.65 236.32 L 807.65 250.42 C 807.65 251.17 807.93 251.90 808.44 252.47 C 808.96 253.03 809.66 253.38 810.43 253.45 C 812.42 253.62 814.87 253.03 817.78 251.66 Z" fill="#2f252f" fill-rule="nonzero" group-id="1" node-id="104" stroke="none" target-height="231.89398" target-width="157.77802" target-x="690.128" target-y="217.285"></path><path d="M 801.84 221.66 C 806.05 220.89 808.01 222.23 807.69 225.68 C 804.83 258.41 808.50 283.84 811.84 314.39 C 812.92 324.34 817.91 331.16 826.79 334.86 C 830.18 336.26 830.18 337.64 826.79 339.01 L 777.31 358.75 C 766.75 356.87 757.52 355.97 747.91 350.68 C 721.24 335.93 701.33 319.78 668.89 320.33 C 668.43 320.35 667.97 320.24 667.57 320.01 C 667.17 319.79 666.84 319.46 666.60 319.06 C 666.37 318.66 666.25 318.21 666.25 317.75 C 666.26 317.29 666.39 316.84 666.62 316.44 C 678.48 296.81 686.25 275.82 689.96 253.45 C 690.38 250.89 689.93 249.05 688.59 247.94 C 687.34 246.91 686.62 247.21 686.45 248.84 C 684.96 264.26 674.44 307.60 659.91 315.80 C 652.11 320.25 644.97 326.19 638.50 333.62 L 619.70 311.14 C 619.08 310.41 618.61 309.55 618.32 308.63 C 618.03 307.71 617.93 306.74 618.01 305.78 C 618.10 304.82 618.38 303.88 618.83 303.03 C 619.28 302.17 619.90 301.42 620.64 300.80 C 640.00 284.82 668.16 259.56 678.63 236.91 C 679.03 236.05 679.60 235.27 680.32 234.64 C 681.03 234.00 681.86 233.52 682.77 233.22 C 683.67 232.92 684.63 232.80 685.58 232.89 C 686.53 232.97 687.45 233.25 688.29 233.71 C 698.97 239.44 703.93 247.17 719.02 244.44 C 722.72 243.75 729.56 240.68 739.53 235.21 C 740.75 234.54 742.16 234.27 743.55 234.44 C 764.74 236.83 784.17 232.57 801.84 221.66 Z" fill="#317464" fill-rule="nonzero" group-id="1" node-id="106" stroke="none" target-height="137.863" target-width="212.258" target-x="617.927" target-y="220.889"></path><path d="M 341.50 326.62 C 331.75 291.00 306.41 268.77 265.47 259.91 C 260.97 258.94 256.08 259.58 250.81 261.83 C 249.47 262.40 248.53 263.35 247.99 264.69 C 239.91 283.62 248.08 307.86 259.23 323.75 L 252.74 324.35 C 251.28 324.49 250.20 323.92 249.49 322.64 L 230.04 287.94 C 225.81 272.04 219.23 223.58 251.71 231.79 C 288.63 241.13 320.36 260.40 346.88 289.61 C 352.32 295.65 356.11 301.83 358.25 308.15 C 358.48 308.84 358.54 309.58 358.40 310.29 C 358.27 311.00 357.95 311.67 357.48 312.21 C 351.64 319.11 346.31 323.91 341.50 326.62 Z" fill="#f14e1f" fill-rule="nonzero" group-id="1" node-id="108" stroke="none" target-height="103.034" target-width="139.30501" target-x="219.231" target-y="223.581"></path><path d="M 403.46 237.64 C 404.20 237.98 404.67 238.04 404.87 237.81 C 407.49 240.86 411.72 240.73 417.56 237.43 C 418.40 236.95 419.33 236.66 420.29 236.57 C 421.25 236.49 422.22 236.60 423.13 236.91 C 424.04 237.22 424.88 237.72 425.58 238.38 C 426.29 239.03 426.85 239.83 427.22 240.72 L 448.80 291.96 C 448.55 295.20 446.07 296.36 441.37 295.42 L 407.61 244.65 C 407.52 244.56 406.50 243.62 404.53 241.83 C 403.39 240.78 403.03 239.38 403.46 237.64 Z" fill="#ff702b" fill-rule="nonzero" group-id="1" node-id="110" stroke="none" target-height="59.87401" target-width="45.769012" target-x="403.034" target-y="236.485"></path><path d="M 777.31 358.75 C 774.26 364.65 775.60 371.36 781.33 378.88 C 784.97 383.69 783.82 386.62 777.86 387.64 C 744.62 393.31 715.90 409.39 691.71 435.89 C 689.91 436.63 688.13 436.84 686.37 436.53 C 685.91 436.45 685.49 436.23 685.17 435.88 C 684.85 435.53 684.66 435.08 684.62 434.61 C 683.19 418.51 682.02 404.41 681.11 392.30 C 680.48 384.01 683.01 376.92 688.67 371.02 C 689.60 370.06 690.21 368.83 690.40 367.50 C 690.60 366.18 690.39 364.82 689.79 363.62 C 689.07 362.26 688.12 361.07 686.92 360.08 C 685.73 359.11 685.36 357.88 685.81 356.40 C 687.01 352.47 686.50 349.18 684.27 346.53 C 677.04 338.18 666.94 335.58 653.98 338.71 C 652.75 338.99 651.61 338.77 650.56 338.03 C 647.71 335.97 643.69 334.51 638.50 333.62 C 644.97 326.19 652.11 320.25 659.91 315.80 C 674.45 307.60 684.96 264.26 686.45 248.84 C 686.62 247.21 687.34 246.91 688.59 247.94 C 689.93 249.05 690.38 250.89 689.96 253.45 C 686.25 275.82 678.48 296.81 666.62 316.44 C 666.39 316.84 666.26 317.29 666.25 317.75 C 666.25 318.21 666.37 318.66 666.60 319.06 C 666.84 319.46 667.17 319.79 667.57 320.01 C 667.97 320.24 668.43 320.35 668.89 320.33 C 701.33 319.78 721.24 335.93 747.91 350.68 C 757.52 355.97 766.75 356.87 777.31 358.75 Z" fill="#2d625c" fill-rule="nonzero" group-id="1" node-id="112" stroke="none" target-height="189.928" target-width="146.46796" target-x="638.504" target-y="246.915"></path><path d="M 403.55 277.94 C 402.91 277.80 402.30 277.52 401.78 277.13 C 401.25 276.73 400.82 276.23 400.50 275.65 C 400.18 275.08 399.99 274.44 399.93 273.78 C 399.87 273.12 399.95 272.45 400.17 271.83 L 403.08 263.45 C 403.56 262.03 403.31 260.77 402.31 259.69 C 401.25 258.52 400.70 257.17 400.64 255.63 C 400.63 255.31 400.72 255.00 400.90 254.74 C 401.08 254.48 401.34 254.28 401.64 254.18 C 401.94 254.07 402.27 254.07 402.57 254.16 C 402.88 254.25 403.14 254.44 403.33 254.69 L 419.74 277.81 C 421.91 280.86 421.17 281.97 417.52 281.14 L 403.55 277.94 Z" fill="#b75c38" fill-rule="nonzero" group-id="1" node-id="114" stroke="none" target-height="27.90599" target-width="22.036987" target-x="399.872" target-y="254.066"></path><path d="M 341.50 326.62 C 335.48 334.42 329.77 339.01 324.36 340.38 C 298.46 349.41 276.75 343.87 259.23 323.75 C 248.08 307.86 239.91 283.62 247.99 264.69 C 248.53 263.35 249.47 262.40 250.81 261.83 C 256.08 259.58 260.97 258.94 265.47 259.91 C 306.41 268.77 331.75 291.00 341.50 326.62 Z" fill="#fae9dc" fill-rule="nonzero" group-id="1" node-id="116" stroke="none" target-height="90.47" target-width="101.582" target-x="239.914" target-y="258.937"></path><path d="M 658.72 406.14 C 658.89 407.48 658.80 408.50 658.46 409.18 L 630.13 432.38 C 618.62 437.71 608.11 443.48 598.59 449.69 C 589.74 455.46 551.67 471.74 530.30 473.03 C 526.71 473.25 523.76 473.91 521.45 474.99 C 518.95 469.95 514.10 467.50 506.92 467.64 C 491.24 467.94 451.75 471.57 455.90 493.80 C 420.71 496.53 385.48 495.90 350.21 491.92 C 319.83 456.66 316.97 412.38 328.68 368.75 C 338.59 331.83 368.76 311.02 395.81 288.67 C 396.92 287.75 398.31 287.26 399.74 287.26 C 415.00 287.38 426.71 294.05 440.34 299.61 C 445.16 305.53 451.71 308.78 460.00 309.35 C 475.47 310.43 485.10 308.15 488.89 302.51 C 497.26 293.57 501.85 284.04 502.65 273.92 C 502.76 272.44 503.55 271.76 505.00 271.87 C 532.44 273.84 551.45 274.14 571.84 285.80 C 588.16 295.09 600.88 303.01 610.00 309.56 C 626.50 321.40 634.14 342.08 644.96 359.01 C 654.57 374.01 655.51 389.26 658.72 406.14 Z M 615.92 391.27 C 618.43 390.71 620.77 389.52 622.82 387.78 C 624.86 386.04 626.57 383.77 627.83 381.11 C 629.10 378.44 629.91 375.44 630.20 372.26 C 630.50 369.09 630.29 365.81 629.57 362.60 C 628.12 356.13 624.73 350.38 620.12 346.60 C 615.52 342.83 610.08 341.34 605.02 342.47 C 602.51 343.04 600.16 344.22 598.12 345.96 C 596.08 347.71 594.38 349.98 593.11 352.64 C 591.84 355.30 591.03 358.31 590.74 361.48 C 590.44 364.65 590.65 367.94 591.37 371.14 C 592.82 377.61 596.22 383.37 600.82 387.14 C 605.42 390.92 610.86 392.40 615.92 391.27 Z M 360.57 432.97 C 363.22 433.14 365.89 432.67 368.42 431.58 C 370.94 430.50 373.29 428.81 375.31 426.63 C 377.33 424.44 378.99 421.80 380.20 418.86 C 381.41 415.91 382.14 412.72 382.35 409.46 C 382.78 402.88 381.06 396.43 377.58 391.53 C 374.10 386.63 369.13 383.68 363.79 383.33 C 361.14 383.16 358.47 383.63 355.94 384.72 C 353.42 385.81 351.07 387.50 349.05 389.68 C 347.03 391.87 345.37 394.50 344.16 397.45 C 342.95 400.40 342.22 403.59 342.01 406.85 C 341.58 413.43 343.30 419.88 346.78 424.78 C 350.26 429.68 355.23 432.63 360.57 432.97 Z" fill="#ff702b" fill-rule="nonzero" group-id="1" node-id="118" stroke="none" target-height="224.772" target-width="341.92297" target-x="316.966" target-y="271.758"></path><path d="M 230.04 287.94 L 249.49 322.64 C 250.20 323.92 251.28 324.49 252.74 324.35 L 259.23 323.75 C 276.75 343.87 298.46 349.41 324.36 340.38 C 325.58 342.17 326.30 344.02 326.50 345.93 C 326.61 347.24 326.14 348.30 325.08 349.09 L 320.13 352.81 C 319.25 353.50 318.85 354.39 318.93 355.50 L 319.19 358.97 C 295.60 361.64 275.46 356.17 258.76 342.56 C 255.03 335.75 247.35 324.91 235.73 310.03 C 231.37 304.48 229.47 297.11 230.04 287.94 Z" fill="#7b0b0a" fill-rule="nonzero" group-id="1" node-id="120" stroke="none" target-height="73.70401" target-width="97.13698" target-x="229.473" target-y="287.94"></path><path d="M 615.92 391.27 C 610.86 392.40 605.42 390.92 600.82 387.14 C 596.22 383.37 592.82 377.61 591.37 371.14 C 590.65 367.94 590.44 364.65 590.74 361.48 C 591.03 358.31 591.84 355.30 593.11 352.64 C 594.38 349.98 596.08 347.71 598.12 345.96 C 600.16 344.22 602.51 343.04 605.02 342.47 C 610.08 341.34 615.52 342.83 620.12 346.60 C 624.73 350.38 628.12 356.13 629.57 362.60 C 630.29 365.81 630.50 369.09 630.20 372.26 C 629.91 375.44 629.10 378.44 627.83 381.11 C 626.57 383.77 624.86 386.03 622.82 387.78 C 620.77 389.52 618.43 390.71 615.92 391.27 Z M 608.38 375.68 C 609.28 376.31 610.34 376.69 611.45 376.76 C 612.55 376.84 613.65 376.61 614.64 376.10 C 615.62 375.59 616.45 374.82 617.04 373.87 C 617.62 372.92 617.94 371.83 617.95 370.72 C 617.98 366.13 616.54 362.11 613.63 358.67 C 611.24 355.79 608.92 355.85 606.67 358.84 C 601.51 365.68 602.08 371.29 608.38 375.68 Z" fill="#260f13" fill-rule="nonzero" group-id="1" node-id="122" stroke="none" target-height="51.059998" target-width="40.06598" target-x="590.437" target-y="341.342"></path><path d="M 678.29 345.46 C 679.18 346.09 679.81 347.03 680.05 348.09 C 680.29 349.15 680.12 350.25 679.57 351.19 C 673.33 362.04 664.47 365.05 652.99 360.20 C 651.41 359.54 650.06 358.43 649.10 357.01 C 648.13 355.60 647.59 353.94 647.53 352.23 C 647.48 350.52 647.91 348.82 648.79 347.35 C 649.67 345.88 650.95 344.69 652.48 343.92 C 661.74 339.31 670.34 339.82 678.29 345.46 Z" fill="#ac5035" fill-rule="nonzero" group-id="1" node-id="124" stroke="none" target-height="25.73999" target-width="32.809998" target-x="647.477" target-y="339.308"></path><path d="M 684.27 346.53 C 686.50 349.18 687.01 352.47 685.81 356.40 C 685.36 357.88 685.73 359.11 686.92 360.08 C 688.12 361.07 689.07 362.26 689.79 363.62 C 690.39 364.82 690.60 366.18 690.40 367.50 C 690.21 368.83 689.60 370.06 688.67 371.02 C 683.01 376.91 680.48 384.01 681.11 392.30 C 682.02 404.41 683.19 418.51 684.62 434.61 C 684.66 435.08 684.85 435.53 685.17 435.88 C 685.48 436.22 685.91 436.45 686.37 436.53 C 688.13 436.84 689.91 436.63 691.71 435.89 L 690.13 449.18 C 686.65 456.36 686.33 463.74 689.14 471.32 C 689.69 472.83 689.19 473.80 687.65 474.22 C 677.99 476.93 668.21 477.70 658.29 476.53 C 656.78 476.33 656.17 475.49 656.45 474.01 C 659.10 460.76 665.86 447.56 665.09 434.01 C 664.74 427.73 665.81 413.88 661.58 409.26 C 660.16 407.73 659.42 408.00 659.36 410.08 L 658.93 426.44 L 658.46 409.18 C 658.80 408.50 658.89 407.48 658.72 406.14 L 655.86 370.76 C 655.81 370.14 655.99 369.52 656.35 369.02 C 656.72 368.52 657.26 368.17 657.86 368.03 C 668.21 365.55 688.38 361.66 684.27 346.53 Z" fill="#2d424a" fill-rule="nonzero" group-id="1" node-id="126" stroke="none" target-height="131.168" target-width="35.901" target-x="655.808" target-y="346.53"></path><path d="M 608.38 375.68 C 602.08 371.29 601.51 365.68 606.67 358.84 C 608.92 355.85 611.24 355.79 613.63 358.67 C 616.54 362.11 617.98 366.13 617.95 370.72 C 617.94 371.83 617.62 372.92 617.04 373.87 C 616.45 374.82 615.62 375.59 614.64 376.10 C 613.65 376.61 612.55 376.84 611.45 376.76 C 610.34 376.69 609.28 376.31 608.38 375.68 Z" fill="#692531" fill-rule="nonzero" group-id="1" node-id="128" stroke="none" target-height="21.049988" target-width="16.46698" target-x="601.51" target-y="355.789"></path><path d="M 360.57 432.97 C 355.23 432.63 350.26 429.68 346.78 424.78 C 343.30 419.88 341.58 413.43 342.01 406.85 C 342.22 403.59 342.95 400.40 344.16 397.45 C 345.37 394.50 347.03 391.87 349.05 389.68 C 351.07 387.50 353.42 385.81 355.94 384.72 C 358.47 383.63 361.14 383.16 363.79 383.33 C 369.13 383.68 374.10 386.63 377.58 391.53 C 381.06 396.43 382.78 402.88 382.35 409.46 C 382.14 412.72 381.41 415.91 380.20 418.86 C 378.99 421.80 377.33 424.44 375.31 426.63 C 373.29 428.81 370.94 430.50 368.42 431.58 C 365.89 432.67 363.22 433.14 360.57 432.97 Z M 371.03 397.00 C 370.75 396.43 370.30 395.96 369.75 395.65 C 369.19 395.34 368.56 395.21 367.93 395.27 C 367.30 395.33 366.70 395.58 366.21 395.99 C 365.73 396.40 365.38 396.94 365.21 397.56 C 364.36 400.58 364.20 403.68 364.74 406.87 C 365.06 408.69 366.01 409.15 367.61 408.24 C 372.34 405.59 373.48 401.84 371.03 397.00 Z" fill="#2a191a" fill-rule="nonzero" group-id="1" node-id="130" stroke="none" target-height="49.981995" target-width="41.195007" target-x="341.582" target-y="383.163"></path><path d="M 371.03 397.00 C 373.48 401.84 372.34 405.59 367.61 408.24 C 366.01 409.15 365.06 408.69 364.74 406.87 C 364.20 403.68 364.36 400.58 365.21 397.56 C 365.38 396.94 365.73 396.40 366.21 395.99 C 366.70 395.58 367.30 395.33 367.93 395.27 C 368.56 395.21 369.19 395.34 369.75 395.65 C 370.30 395.96 370.75 396.43 371.03 397.00 Z" fill="#fae9dc" fill-rule="nonzero" group-id="1" node-id="132" stroke="none" target-height="13.944" target-width="9.274017" target-x="364.202" target-y="395.207"></path><path d="M 658.46 409.18 L 658.93 426.44 C 653.85 490.63 612.26 553.03 546.45 568.58 C 516.51 575.65 487.86 576.13 460.51 570.03 C 455.67 563.62 447.25 559.11 435.26 556.49 C 434.63 556.37 434.16 556.07 433.85 555.59 C 433.11 554.48 433.40 553.97 434.74 554.05 C 459.05 555.56 479.89 555.60 497.26 554.18 C 570.94 548.15 606.88 495.93 630.13 432.38 L 658.46 409.18 Z" fill="#f6d5c8" fill-rule="nonzero" group-id="1" node-id="134" stroke="none" target-height="166.952" target-width="225.827" target-x="433.105" target-y="409.179"></path><path d="M 630.13 432.38 C 606.88 495.93 570.94 548.15 497.26 554.18 C 479.89 555.60 459.05 555.56 434.74 554.05 C 433.40 553.97 433.11 554.48 433.85 555.59 C 434.16 556.07 434.63 556.37 435.26 556.49 C 447.25 559.11 455.67 563.62 460.51 570.03 C 416.50 560.80 375.30 527.73 350.21 491.92 C 385.48 495.90 420.71 496.53 455.90 493.80 C 463.19 500.77 471.64 505.45 481.24 507.81 C 505.38 513.79 523.03 501.02 521.45 474.99 C 523.76 473.91 526.71 473.25 530.30 473.03 C 551.67 471.74 589.74 455.46 598.59 449.69 C 608.11 443.48 618.62 437.71 630.13 432.38 Z" fill="#fef6eb" fill-rule="nonzero" group-id="1" node-id="136" stroke="none" target-height="137.64899" target-width="279.914" target-x="350.214" target-y="432.385"></path><path d="M 521.45 474.99 C 523.03 501.02 505.38 513.79 481.24 507.81 C 471.64 505.45 463.19 500.77 455.90 493.80 C 451.75 471.57 491.24 467.94 506.92 467.64 C 514.10 467.50 518.95 469.95 521.45 474.99 Z" fill="#43132f" fill-rule="nonzero" group-id="1" node-id="138" stroke="none" target-height="46.29599" target-width="71.28198" target-x="451.752" target-y="467.499"></path><path d="M 389.19 546.23 L 401.03 555.55 C 401.54 555.95 401.90 556.51 402.07 557.13 C 402.23 557.76 402.18 558.42 401.92 559.01 C 399.83 563.71 396.20 565.42 390.86 564.65 C 359.32 560.12 336.50 547.77 308.59 528.62 C 303.32 524.98 299.25 520.42 296.37 514.95 C 293.43 504.89 295.98 495.88 304.02 487.90 L 323.08 475.20 C 323.49 474.93 323.96 474.74 324.45 474.65 C 324.94 474.56 325.44 474.57 325.93 474.68 C 326.41 474.79 326.87 474.99 327.28 475.28 C 327.69 475.57 328.03 475.94 328.29 476.36 C 345.04 503.45 363.25 527.17 389.19 546.23 Z" fill="#ff922f" fill-rule="nonzero" group-id="1" node-id="140" stroke="none" target-height="90.856995" target-width="108.79599" target-x="293.433" target-y="474.562"></path><path d="M 701.11 484.86 C 694.67 517.65 678.05 545.52 651.24 568.45 L 605.47 548.11 C 605.19 548.00 604.94 547.81 604.75 547.57 C 604.57 547.34 604.44 547.05 604.39 546.76 C 604.34 546.46 604.36 546.15 604.46 545.87 C 604.56 545.58 604.73 545.32 604.96 545.12 C 615.00 535.89 624.14 527.56 631.54 516.06 C 638.40 505.38 645.14 493.98 651.75 481.87 C 653.35 478.97 655.77 477.80 659.02 478.37 C 666.97 479.76 675.75 480.16 685.38 479.56 C 693.67 479.05 698.92 480.82 701.11 484.86 Z" fill="#692531" fill-rule="nonzero" group-id="1" node-id="142" stroke="none" target-height="90.655" target-width="96.77301" target-x="604.338" target-y="477.798"></path><path d="M 701.11 484.86 C 723.67 493.04 743.77 503.07 761.41 514.95 C 762.38 515.60 763.17 516.46 763.75 517.47 C 764.32 518.48 764.65 519.61 764.71 520.78 C 764.78 521.94 764.57 523.10 764.11 524.18 C 763.64 525.25 762.94 526.20 762.05 526.96 L 697.39 581.87 C 696.80 582.37 696.10 582.70 695.35 582.85 C 694.60 582.99 693.83 582.93 693.12 582.68 L 651.24 568.45 C 678.05 545.52 694.67 517.65 701.11 484.86 Z" fill="#ac5035" fill-rule="nonzero" group-id="1" node-id="144" stroke="none" target-height="98.12399" target-width="113.53699" target-x="651.239" target-y="484.863"></path><path d="M 304.02 487.90 C 295.98 495.88 293.43 504.89 296.37 514.95 C 293.06 513.01 292.81 514.89 295.60 520.59 C 298.42 526.35 306.62 533.70 320.21 542.64 C 330.44 549.37 340.70 555.49 350.98 561.02 C 351.28 561.18 351.53 561.43 351.69 561.74 C 351.85 562.04 351.92 562.38 351.89 562.72 C 351.87 563.06 351.74 563.39 351.54 563.66 C 351.33 563.94 351.05 564.15 350.73 564.26 L 297.48 582.98 C 292.06 578.97 288.40 574.51 286.50 569.61 C 278.20 548.54 257.09 556.87 241.50 549.86 C 229.99 544.68 226.12 535.32 229.91 521.79 C 230.14 521.01 230.19 520.19 230.08 519.39 C 229.96 518.59 229.68 517.82 229.25 517.13 C 228.82 516.45 228.25 515.86 227.57 515.41 C 226.90 514.96 226.14 514.66 225.34 514.52 C 221.95 513.92 219.17 511.96 217.01 508.62 L 230.34 514.82 C 231.68 515.42 233.06 515.66 234.49 515.55 L 240.77 515.03 C 241.31 516.74 240.60 518.05 238.63 518.97 C 237.52 519.48 236.68 520.28 236.11 521.36 C 233.89 525.72 233.26 530.32 234.23 535.16 C 234.66 537.36 235.90 538.94 237.95 539.91 C 248.01 544.69 258.35 545.23 268.97 541.53 C 269.66 541.29 270.26 540.85 270.70 540.28 C 271.14 539.70 271.40 539.01 271.45 538.28 C 272.45 524.15 264.66 515.30 248.08 511.74 C 265.65 498.78 284.30 490.83 304.02 487.90 Z" fill="#ac5035" fill-rule="nonzero" group-id="1" node-id="146" stroke="none" target-height="95.08597" target-width="134.91101" target-x="217.009" target-y="487.897"></path><path d="M 217.01 508.62 C 219.17 511.96 221.95 513.92 225.34 514.52 C 226.14 514.66 226.90 514.96 227.57 515.41 C 228.25 515.86 228.82 516.45 229.25 517.13 C 229.68 517.82 229.96 518.59 230.08 519.39 C 230.19 520.19 230.14 521.01 229.91 521.79 C 226.12 535.32 229.99 544.68 241.50 549.86 C 257.09 556.87 278.20 548.54 286.50 569.61 C 288.40 574.51 292.06 578.97 297.48 582.98 L 278.38 593.24 C 251.99 589.99 225.23 579.65 198.08 562.21 C 192.31 558.50 185.13 553.71 180.68 548.45 C 179.77 547.37 178.66 546.70 177.35 546.44 C 175.90 546.19 175.10 545.33 174.96 543.88 C 174.25 536.39 176.10 528.03 180.51 518.79 C 190.03 507.06 202.19 503.67 217.01 508.62 Z" fill="#b75c38" fill-rule="nonzero" group-id="1" node-id="148" stroke="none" target-height="89.57202" target-width="123.23401" target-x="174.245" target-y="503.667"></path><path d="M 248.08 511.74 C 264.66 515.30 272.45 524.15 271.45 538.28 C 271.40 539.01 271.14 539.70 270.70 540.28 C 270.26 540.85 269.66 541.29 268.97 541.53 C 258.35 545.23 248.01 544.69 237.95 539.91 C 235.90 538.94 234.66 537.36 234.23 535.16 C 233.26 530.32 233.89 525.72 236.11 521.36 C 236.68 520.28 237.52 519.48 238.63 518.97 C 240.60 518.05 241.31 516.74 240.77 515.03 C 243.36 513.18 245.80 512.09 248.08 511.74 Z" fill="#b75c38" fill-rule="nonzero" group-id="1" node-id="150" stroke="none" target-height="33.49002" target-width="39.18802" target-x="233.262" target-y="511.744"></path><path d="M 296.37 514.95 C 299.25 520.42 303.32 524.98 308.59 528.62 C 336.50 547.77 359.32 560.12 390.86 564.65 C 396.20 565.42 399.83 563.71 401.92 559.01 C 402.18 558.42 402.23 557.76 402.07 557.13 C 401.90 556.51 401.54 555.95 401.03 555.55 L 389.19 546.23 C 392.21 544.98 394.67 545.58 396.58 548.03 C 397.26 548.88 398.15 549.16 399.23 548.88 C 401.85 548.14 403.40 549.01 403.89 551.49 C 404.02 552.15 404.30 552.77 404.71 553.29 C 405.12 553.82 405.64 554.24 406.24 554.52 L 447.05 573.92 L 413.12 563.62 C 411.78 563.23 410.50 563.33 409.27 563.92 C 402.66 566.97 397.98 570.13 395.21 573.41 C 378.86 592.81 362.32 612.11 345.60 631.32 C 324.83 652.77 320.90 675.50 322.99 704.01 C 325.47 738.24 324.10 772.51 323.55 806.53 C 323.52 808.50 324.47 809.39 326.41 809.22 C 356.55 806.52 378.60 817.11 392.56 841.02 C 400.90 855.25 400.86 870.29 402.48 885.59 C 402.56 886.27 402.79 886.92 403.17 887.49 C 403.54 888.06 404.03 888.54 404.62 888.88 L 414.44 894.61 C 411.85 898.45 406.74 897.67 399.10 892.26 C 398.79 892.04 398.56 891.72 398.45 891.36 C 398.33 891.00 398.34 890.61 398.46 890.25 C 398.72 889.54 398.39 889.41 397.48 889.86 C 396.91 890.18 396.41 890.59 395.98 891.10 C 394.47 892.90 393.88 894.99 394.19 897.38 C 394.35 898.55 394.13 899.73 393.55 900.76 C 392.38 902.78 390.90 903.58 389.10 903.15 C 394.14 886.57 400.73 876.45 389.06 859.65 C 386.07 855.38 383.50 849.99 381.37 843.50 C 379.54 837.94 375.30 834.35 368.63 832.73 C 367.46 832.44 366.57 832.83 365.94 833.88 C 365.06 835.45 364.50 837.13 364.27 838.92 C 364.27 839.01 363.75 840.08 362.69 842.13 C 362.21 843.04 361.54 843.27 360.68 842.81 C 359.49 842.16 359.05 841.17 359.36 839.86 C 359.81 837.93 359.80 836.10 359.32 834.39 C 362.82 831.29 364.89 827.97 365.51 824.44 C 365.64 823.77 365.56 823.08 365.27 822.46 C 364.99 821.84 364.52 821.32 363.93 820.97 C 342.35 808.50 313.16 816.53 295.73 832.09 C 295.58 829.29 294.00 827.95 290.98 828.07 L 314.36 811.02 C 315.47 810.22 316.03 809.14 316.03 807.77 C 315.88 774.35 315.80 740.93 315.77 707.51 C 315.77 685.97 318.52 667.61 324.02 652.43 L 388.89 571.44 C 389.03 571.27 389.12 571.06 389.16 570.84 C 389.20 570.62 389.18 570.40 389.11 570.19 C 389.03 569.98 388.91 569.80 388.74 569.66 C 388.58 569.52 388.38 569.43 388.16 569.39 C 346.20 561.19 294.32 588.88 258.08 607.64 C 257.68 606.82 257.19 606.17 256.62 605.72 L 278.38 593.24 L 297.48 582.98 L 350.73 564.26 C 351.05 564.15 351.33 563.94 351.54 563.66 C 351.74 563.39 351.87 563.07 351.89 562.72 C 351.92 562.38 351.85 562.04 351.69 561.74 C 351.53 561.43 351.28 561.18 350.98 561.02 C 340.70 555.49 330.44 549.37 320.21 542.64 C 306.62 533.70 298.42 526.35 295.60 520.59 C 292.81 514.89 293.06 513.01 296.37 514.95 Z" fill="#4c1514" fill-rule="nonzero" group-id="1" node-id="152" stroke="none" target-height="390.57" target-width="190.427" target-x="256.624" target-y="513.011"></path><path d="M 180.51 518.79 C 176.10 528.03 174.25 536.39 174.96 543.88 C 175.10 545.33 175.90 546.19 177.35 546.44 C 178.66 546.70 179.77 547.37 180.68 548.45 C 185.13 553.71 192.31 558.50 198.08 562.21 C 225.23 579.65 251.99 589.99 278.38 593.24 L 256.62 605.72 C 248.16 611.62 235.21 617.56 235.34 629.52 C 235.63 665.36 235.73 701.19 235.64 737.00 C 235.56 758.92 238.63 786.40 237.74 811.19 C 237.72 811.58 237.60 811.97 237.38 812.30 C 237.17 812.63 236.87 812.90 236.52 813.08 C 236.17 813.26 235.77 813.34 235.38 813.32 C 234.98 813.29 234.60 813.16 234.27 812.94 L 209.36 796.27 C 206.25 794.18 204.04 791.01 203.16 787.38 C 194.19 749.82 187.91 712.13 181.45 674.09 C 174.19 631.32 171.71 593.62 169.96 550.46 C 169.44 538.15 172.96 527.60 180.51 518.79 Z" fill="#ac5035" fill-rule="nonzero" group-id="1" node-id="154" stroke="none" target-height="294.544" target-width="108.931" target-x="169.445" target-y="518.795"></path><path d="M 719.87 812.86 C 717.96 815.08 715.73 816.46 713.16 817.00 C 712.59 817.13 712.00 817.12 711.43 817.00 C 710.86 816.87 710.33 816.61 709.86 816.25 C 709.40 815.90 709.03 815.44 708.76 814.92 C 708.50 814.40 708.35 813.82 708.33 813.24 C 708.16 806.46 708.52 799.66 709.40 792.86 C 715.90 743.79 717.65 695.93 720.09 646.62 C 720.46 639.15 720.27 627.58 719.53 611.91 C 718.93 599.18 715.21 591.49 702.61 588.62 C 702.00 588.49 701.45 588.18 701.01 587.75 C 700.57 587.31 700.26 586.76 700.12 586.17 C 699.98 585.57 700.01 584.95 700.21 584.37 C 700.40 583.79 700.76 583.28 701.24 582.90 C 722.35 565.76 742.05 544.39 765.90 530.50 C 766.12 530.37 766.37 530.30 766.62 530.30 C 766.88 530.30 767.13 530.37 767.35 530.50 C 767.57 530.63 767.75 530.82 767.87 531.05 C 767.99 531.28 768.05 531.53 768.03 531.79 C 767.26 552.36 766.89 572.41 766.92 591.96 C 766.97 635.67 763.21 680.55 764.02 725.12 C 764.06 729.86 760.68 732.81 760.77 737.09 C 761.07 755.25 764.27 784.61 754.96 793.88 C 750.40 798.41 739.83 803.95 723.25 810.50 C 721.94 811.02 720.81 811.80 719.87 812.86 Z" fill="#692531" fill-rule="nonzero" group-id="1" node-id="156" stroke="none" target-height="286.82495" target-width="68.06995" target-x="699.978" target-y="530.301"></path><path d="M 648.12 571.27 C 633.76 585.35 617.71 597.65 599.96 608.20 L 550.73 575.72 C 549.64 575.01 549.72 574.45 550.94 574.05 C 566.54 568.88 579.87 564.35 595.51 553.84 C 597.28 552.67 600.13 552.60 604.06 553.62 C 619.82 557.70 634.50 563.58 648.12 571.27 Z" fill="#ac5035" fill-rule="nonzero" group-id="1" node-id="158" stroke="none" target-height="55.599" target-width="98.47601" target-x="549.644" target-y="552.598"></path><path d="M 447.05 573.92 C 460.56 576.70 473.63 581.10 487.22 581.14 C 503.35 581.17 519.42 580.43 535.43 578.92 C 553.80 577.17 582.35 599.14 596.33 610.03 C 564.73 618.67 542.76 622.90 530.43 622.73 C 509.06 622.50 488.12 622.51 467.61 622.77 C 460.54 622.86 460.17 624.48 466.50 627.64 C 488.50 638.58 500.64 665.76 486.54 689.22 C 485.80 690.45 484.79 691.37 483.50 692.00 C 470.74 698.07 457.37 699.78 443.38 697.13 C 441.87 696.84 440.67 696.07 439.79 694.82 C 438.73 693.31 437.34 692.73 435.60 693.07 C 433.89 693.38 433.01 692.67 432.95 690.93 C 432.89 689.51 432.24 688.48 430.98 687.86 C 417.28 680.85 410.46 670.09 410.51 655.59 C 410.56 645.21 417.95 637.21 424.87 630.12 C 426.98 627.96 426.61 627.40 423.76 628.45 C 421.65 629.28 418.60 631.06 414.62 633.79 C 414.48 633.90 414.32 633.96 414.15 633.96 C 413.99 633.96 413.82 633.91 413.68 633.81 C 413.54 633.71 413.43 633.57 413.37 633.41 C 413.31 633.25 413.30 633.07 413.33 632.90 C 414.10 630.11 412.54 628.07 408.63 626.79 C 407.21 626.33 405.75 626.07 404.27 626.02 L 355.68 624.18 C 354.92 624.15 354.17 624.34 353.50 624.71 C 352.83 625.09 352.27 625.64 351.88 626.32 C 350.17 629.34 348.08 631.00 345.60 631.32 C 362.32 612.11 378.86 592.81 395.21 573.41 C 397.98 570.13 402.66 566.97 409.27 563.92 C 410.50 563.33 411.78 563.23 413.12 563.62 L 447.05 573.92 Z M 470.33 646.67 C 469.50 643.88 468.13 641.28 466.30 639.03 C 464.46 636.77 462.20 634.90 459.65 633.52 C 457.09 632.13 454.29 631.27 451.39 630.97 C 448.50 630.67 445.58 630.95 442.79 631.78 L 431.41 635.17 C 425.78 636.85 421.05 640.69 418.26 645.86 C 415.47 651.02 414.84 657.08 416.52 662.71 L 417.62 666.39 C 418.45 669.18 419.82 671.77 421.65 674.03 C 423.49 676.29 425.75 678.16 428.30 679.54 C 430.86 680.92 433.66 681.79 436.56 682.09 C 439.45 682.39 442.37 682.12 445.16 681.28 L 456.54 677.89 C 462.17 676.21 466.90 672.37 469.69 667.21 C 472.48 662.04 473.11 655.98 471.43 650.35 L 470.33 646.67 Z" fill="#8c3a33" fill-rule="nonzero" group-id="1" node-id="160" stroke="none" target-height="136.55304" target-width="250.72702" target-x="345.598" target-y="563.225"></path><path d="M 324.02 652.43 C 310.86 650.49 302.04 648.37 297.56 646.06 C 283.42 638.71 263.42 635.38 250.81 622.81 C 249.73 621.76 248.46 621.42 247.01 621.79 C 242.08 623.04 239.97 622.37 240.68 619.78 L 258.08 607.64 C 294.32 588.88 346.20 561.19 388.16 569.39 C 388.38 569.43 388.58 569.52 388.74 569.66 C 388.91 569.80 389.03 569.98 389.11 570.19 C 389.18 570.40 389.20 570.62 389.16 570.84 C 389.12 571.06 389.03 571.27 388.89 571.44 L 324.02 652.43 Z" fill="#fe9e32" fill-rule="nonzero" group-id="1" node-id="162" stroke="none" target-height="91.23901" target-width="149.22801" target-x="239.971" target-y="561.188"></path><path d="M 648.12 571.27 L 691.33 587.00 C 674.00 597.26 658.46 608.92 644.70 622.00 C 640.34 626.16 636.47 631.12 633.08 636.87 L 599.96 608.20 C 617.71 597.65 633.76 585.35 648.12 571.27 Z" fill="#fec57e" fill-rule="nonzero" group-id="1" node-id="164" stroke="none" target-height="65.599" target-width="91.36804" target-x="599.957" target-y="571.273"></path><path d="M 691.33 587.00 C 699.33 589.88 706.28 594.66 712.18 601.36 C 713.15 602.47 713.63 603.75 713.63 605.21 C 712.78 674.81 708.92 744.15 702.05 813.24 C 701.77 816.26 701.04 819.15 699.87 821.91 C 699.38 823.15 698.43 824.16 697.22 824.74 L 625.73 857.98 C 624.07 858.75 623.35 858.23 623.55 856.40 C 630.73 792.58 635.63 728.74 638.25 664.86 C 638.73 653.67 637.01 644.34 633.08 636.87 C 636.47 631.12 640.34 626.16 644.70 622.00 C 658.46 608.92 674.00 597.26 691.33 587.00 Z" fill="#ff7821" fill-rule="nonzero" group-id="1" node-id="166" stroke="none" target-height="271.752" target-width="90.285034" target-x="623.347" target-y="587"></path><path d="M 596.33 610.03 C 608.35 616.90 618.43 625.75 626.58 636.57 C 627.58 637.86 627.45 639.02 626.20 640.08 C 580.64 678.07 554.32 715.33 539.23 771.74 C 527.52 815.46 517.26 856.49 500.26 900.89 C 494.90 914.88 484.66 920.39 469.53 917.43 C 460.16 915.58 441.80 907.97 414.44 894.61 L 404.62 888.88 C 404.03 888.54 403.54 888.06 403.17 887.49 C 402.79 886.92 402.56 886.27 402.48 885.59 C 400.86 870.29 400.90 855.25 392.56 841.02 C 378.60 817.11 356.55 806.52 326.41 809.22 C 324.47 809.39 323.52 808.50 323.55 806.53 C 324.10 772.51 325.47 738.24 322.99 704.01 C 320.90 675.50 324.83 652.77 345.60 631.32 C 348.08 631.00 350.17 629.34 351.88 626.32 C 352.27 625.64 352.83 625.09 353.50 624.71 C 354.17 624.34 354.92 624.15 355.68 624.18 L 404.27 626.02 C 405.75 626.07 407.21 626.33 408.63 626.79 C 412.54 628.07 414.10 630.11 413.33 632.90 C 413.30 633.07 413.31 633.25 413.37 633.41 C 413.43 633.57 413.54 633.71 413.68 633.81 C 413.82 633.91 413.99 633.96 414.15 633.96 C 414.32 633.96 414.48 633.90 414.62 633.79 C 418.60 631.06 421.65 629.28 423.76 628.45 C 426.61 627.40 426.98 627.95 424.87 630.12 C 417.95 637.21 410.56 645.21 410.51 655.59 C 410.46 670.09 417.28 680.85 430.98 687.86 C 432.24 688.48 432.89 689.51 432.95 690.93 C 433.01 692.67 433.89 693.38 435.60 693.07 C 437.34 692.73 438.73 693.31 439.79 694.82 C 440.67 696.07 441.87 696.84 443.38 697.13 C 457.37 699.78 470.74 698.07 483.50 692.00 C 484.79 691.37 485.80 690.45 486.54 689.22 C 500.64 665.76 488.50 638.58 466.50 627.64 C 460.17 624.48 460.54 622.86 467.61 622.77 C 488.12 622.51 509.06 622.50 530.43 622.73 C 542.76 622.90 564.73 618.67 596.33 610.03 Z M 345.86 637.43 C 343.93 637.73 344.40 639.01 343.76 639.86 C 341.34 643.25 341.03 646.30 342.82 649.01 C 343.88 650.63 346.11 651.96 349.53 652.98 C 358.53 655.75 367.26 659.24 375.73 663.45 C 377.01 664.08 378.38 664.35 379.83 664.26 C 383.28 664.04 386.00 665.15 387.99 667.60 C 388.90 668.74 390.08 669.45 391.54 669.74 L 401.32 671.66 C 401.94 671.77 402.57 671.75 403.18 671.57 C 403.78 671.40 404.33 671.09 404.79 670.67 C 405.25 670.25 405.61 669.72 405.83 669.13 C 406.05 668.55 406.13 667.92 406.07 667.30 C 405.70 663.48 405.56 659.48 405.64 655.29 C 405.81 648.75 409.79 643.37 408.97 635.67 C 408.80 634.16 407.98 633.27 406.50 632.98 C 400.13 631.74 389.19 634.18 383.97 629.65 C 383.09 628.85 381.94 628.37 380.73 628.28 L 358.42 626.70 C 358.36 626.67 357.95 626.84 357.27 627.17 C 356.60 627.50 355.70 627.97 354.74 628.50 C 353.83 629.01 353.12 629.71 352.61 630.59 C 351.89 631.79 350.88 632.56 349.57 632.90 C 347.95 633.33 347.15 634.32 347.18 635.89 C 347.18 636.77 346.74 637.28 345.86 637.43 Z" fill="#ac5035" fill-rule="nonzero" group-id="1" node-id="168" stroke="none" target-height="310.35602" target-width="306.681" target-x="320.897" target-y="610.034"></path><path d="M 240.68 619.78 C 239.97 622.37 242.08 623.04 247.01 621.79 C 248.46 621.42 249.73 621.76 250.81 622.81 C 263.42 635.38 283.42 638.71 297.56 646.06 C 302.04 648.37 310.86 650.49 324.02 652.43 C 318.52 667.61 315.77 685.97 315.77 707.51 C 315.80 740.93 315.88 774.35 316.03 807.77 C 316.03 809.14 315.47 810.22 314.36 811.02 L 290.98 828.07 L 284.87 835.03 C 283.96 836.09 282.88 836.32 281.62 835.72 L 247.35 819.31 C 245.91 818.61 244.69 817.54 243.80 816.21 C 242.91 814.88 242.40 813.34 242.31 811.74 C 239.20 750.52 237.69 688.35 237.78 625.25 C 237.78 622.80 238.75 620.97 240.68 619.78 Z" fill="#ff922f" fill-rule="nonzero" group-id="1" node-id="170" stroke="none" target-height="216.53796" target-width="86.325" target-x="237.692" target-y="619.778"></path><path d="M 347.18 635.89 C 347.15 634.32 347.95 633.33 349.57 632.90 C 350.88 632.55 351.89 631.79 352.61 630.59 C 353.12 629.71 353.83 629.01 354.74 628.50 C 355.70 627.97 356.60 627.50 357.27 627.17 C 357.95 626.84 358.36 626.67 358.42 626.70 L 380.73 628.28 C 381.94 628.37 383.09 628.85 383.97 629.65 C 389.19 634.18 400.13 631.74 406.50 632.98 C 407.98 633.27 408.80 634.16 408.97 635.67 C 409.79 643.37 405.81 648.75 405.64 655.29 C 405.56 659.48 405.70 663.48 406.07 667.30 C 406.13 667.92 406.05 668.55 405.83 669.13 C 405.61 669.72 405.25 670.25 404.79 670.67 C 404.33 671.09 403.78 671.40 403.18 671.57 C 402.57 671.75 401.94 671.77 401.32 671.66 L 391.54 669.74 C 390.09 669.45 388.90 668.74 387.99 667.60 C 386.00 665.15 383.28 664.04 379.83 664.26 C 378.38 664.35 377.01 664.08 375.73 663.45 C 367.26 659.24 358.53 655.75 349.53 652.98 C 346.11 651.96 343.88 650.63 342.82 649.01 C 341.03 646.30 341.34 643.25 343.76 639.86 C 344.40 639.01 343.93 637.73 345.86 637.43 C 346.74 637.28 347.18 636.77 347.18 635.89 Z" fill="#b75c38" fill-rule="nonzero" group-id="1" node-id="172" stroke="none" target-height="45.100037" target-width="68.76001" target-x="341.026" target-y="626.675"></path><path d="M 442.79 631.78 L 431.41 635.17 C 419.69 638.66 413.02 650.99 416.52 662.71 L 417.62 666.39 C 421.11 678.11 433.44 684.78 445.15 681.28 L 456.54 677.89 C 468.26 674.40 474.92 662.07 471.43 650.35 L 470.33 646.67 C 466.84 634.95 454.51 628.28 442.79 631.78 Z" fill="#f5534c" fill-rule="nonzero" group-id="1" node-id="174" stroke="none" target-height="56.493958" target-width="61.89801" target-x="413.025" target-y="628.283"></path><path d="M 538.55 800.55 C 545.84 769.26 552.56 747.16 558.72 734.22 C 568.83 713.00 577.62 698.38 585.09 690.38 C 598.89 675.67 611.84 656.62 627.39 644.18 C 627.75 643.90 628.18 643.73 628.63 643.68 C 629.08 643.63 629.53 643.71 629.94 643.90 C 630.35 644.10 630.69 644.40 630.94 644.78 C 631.18 645.17 631.32 645.61 631.33 646.06 C 631.61 672.07 631.10 697.90 629.79 723.54 C 629.40 730.55 626.79 738.75 626.41 746.40 C 625.21 772.56 623.21 792.90 621.45 824.78 C 620.80 836.97 619.13 849.07 616.45 861.06 C 616.18 862.36 615.45 863.52 614.40 864.35 C 601.58 874.48 582.39 880.55 567.22 886.74 C 548.21 894.52 526.07 907.77 502.91 914.22 C 501.05 914.74 500.51 914.09 501.28 912.30 C 516.52 876.69 528.53 840.11 537.31 802.56 C 537.39 802.24 537.52 801.97 537.69 801.74 C 537.81 801.60 537.93 801.47 538.08 801.36 C 538.33 801.10 538.49 800.83 538.55 800.55 Z" fill="#692531" fill-rule="nonzero" group-id="1" node-id="176" stroke="none" target-height="271.10297" target-width="131.09698" target-x="500.513" target-y="643.632"></path><path d="M 359.32 834.39 C 357.35 838.13 354.80 841.32 351.67 843.97 C 350.87 844.62 350.19 844.66 349.62 844.09 C 348.70 843.24 348.55 842.24 349.14 841.10 L 350.13 839.26 C 351.01 837.64 350.71 836.27 349.23 835.16 C 335.30 824.62 323.73 825.49 314.53 837.77 L 311.37 837.38 C 312.39 836.13 312.85 835.05 312.74 834.14 C 312.70 833.88 312.60 833.64 312.45 833.43 C 312.29 833.23 312.09 833.06 311.85 832.96 C 311.61 832.86 311.35 832.82 311.10 832.84 C 310.84 832.87 310.60 832.96 310.38 833.11 C 306.88 835.48 303.03 837.00 298.85 837.68 C 297.96 837.83 297.26 838.27 296.75 839.01 C 296.27 839.69 296.00 840.32 295.94 840.89 C 295.34 841.23 294.86 841.10 294.49 840.50 L 293.08 838.75 C 292.05 837.53 291.91 836.22 292.65 834.82 C 293.31 833.57 294.33 832.66 295.73 832.09 C 313.16 816.53 342.35 808.50 363.93 820.98 C 364.52 821.32 364.99 821.84 365.27 822.46 C 365.56 823.08 365.64 823.77 365.51 824.44 C 364.89 827.97 362.82 831.29 359.32 834.39 Z" fill="#ac5035" fill-rule="nonzero" group-id="1" node-id="178" stroke="none" target-height="36.16803" target-width="73.73001" target-x="291.909" target-y="808.496"></path><path d="M 359.32 834.39 C 359.80 836.10 359.81 837.93 359.36 839.86 C 359.05 841.17 359.49 842.16 360.68 842.81 C 361.54 843.27 362.21 843.04 362.69 842.13 C 363.75 840.08 364.27 839.01 364.27 838.92 C 364.50 837.13 365.06 835.45 365.94 833.88 C 366.57 832.83 367.46 832.44 368.63 832.73 C 375.30 834.35 379.54 837.94 381.37 843.50 C 383.50 849.99 386.07 855.38 389.06 859.65 C 400.73 876.44 394.14 886.57 389.10 903.15 L 375.43 922.60 C 368.93 928.12 363.80 931.40 360.04 932.43 C 341.38 937.50 323.95 935.73 307.74 927.13 C 316.60 922.68 322.69 913.30 326.03 898.97 C 326.21 898.16 326.69 897.46 327.38 897.00 C 328.06 896.54 328.89 896.36 329.70 896.49 L 350.86 899.99 C 352.51 900.28 353.55 901.25 353.97 902.90 C 355.74 909.68 355.21 916.17 352.39 922.38 C 350.26 927.09 351.50 928.27 356.11 925.93 C 363.49 922.23 369.47 917.04 374.06 910.38 C 374.83 909.24 375.13 908.00 374.96 906.66 C 374.07 899.74 370.34 895.59 363.76 894.22 C 342.78 889.95 307.05 886.87 290.13 874.22 C 300.75 873.77 310.97 875.80 320.77 880.33 C 322.07 880.93 323.53 881.12 324.94 880.86 C 326.36 880.60 327.66 879.91 328.68 878.88 C 331.44 876.06 334.67 875.40 338.38 876.91 C 338.55 877.00 338.63 877.14 338.63 877.34 C 338.66 877.91 338.68 878.45 338.68 878.97 C 338.73 879.93 339.23 880.53 340.17 880.76 L 351.62 883.71 C 351.89 883.78 352.17 883.79 352.44 883.73 C 352.71 883.68 352.97 883.56 353.19 883.38 C 353.41 883.21 353.58 882.99 353.71 882.73 C 353.83 882.48 353.89 882.20 353.89 881.91 L 353.80 880.29 C 353.78 879.42 353.49 878.58 352.97 877.89 C 352.44 877.20 351.72 876.70 350.90 876.44 L 336.28 871.96 C 334.71 871.47 333.12 871.40 331.50 871.74 C 319.87 874.01 310.81 869.69 299.36 869.44 C 298.65 869.41 298.29 869.05 298.29 868.37 L 298.29 868.33 C 298.26 867.61 298.60 867.23 299.32 867.17 C 307.95 866.62 315.21 868.71 323.93 867.64 C 335.01 866.30 345.70 868.00 355.98 872.73 C 356.30 872.87 356.65 872.93 357.00 872.90 C 357.35 872.88 357.69 872.76 357.98 872.57 C 358.27 872.38 358.52 872.12 358.68 871.81 C 358.85 871.50 358.93 871.15 358.93 870.80 L 358.93 868.84 C 358.93 868.36 358.78 867.89 358.50 867.51 C 358.21 867.12 357.81 866.84 357.35 866.70 L 339.23 861.44 C 338.80 861.30 338.60 861.02 338.63 860.59 C 338.63 860.11 338.62 859.62 338.59 859.14 C 338.56 858.57 338.82 858.31 339.36 858.37 C 352.66 859.34 365.68 857.97 378.42 854.26 C 380.07 853.78 380.87 852.67 380.81 850.93 C 380.73 846.72 379.32 842.98 376.58 839.74 C 376.03 839.07 375.33 838.54 374.55 838.18 C 373.76 837.83 372.90 837.65 372.04 837.67 C 371.18 837.69 370.33 837.91 369.56 838.30 C 368.80 838.70 368.13 839.26 367.61 839.95 L 359.02 851.19 C 358.02 852.50 356.72 853.24 355.13 853.41 C 345.56 854.56 339.06 850.80 331.54 858.92 C 330.51 860.06 329.23 860.75 327.69 860.97 C 315.67 862.77 304.57 860.75 294.40 854.91 C 291.01 852.97 290.64 850.56 293.29 847.68 C 294.80 846.03 296.17 845.88 297.39 847.21 C 300.36 853.60 304.63 856.23 310.21 855.12 C 312.52 854.66 312.76 853.71 310.94 852.26 C 308.26 850.12 306.60 847.38 305.94 844.05 C 305.88 843.76 305.77 843.49 305.61 843.24 C 305.44 843.00 305.23 842.79 304.98 842.63 C 304.73 842.47 304.46 842.36 304.17 842.31 C 303.88 842.26 303.58 842.27 303.29 842.34 C 301.92 842.65 300.78 843.47 299.87 844.78 C 297.56 844.86 296.25 843.57 295.94 840.89 C 296.00 840.32 296.27 839.69 296.75 839.01 C 297.26 838.27 297.96 837.83 298.85 837.68 C 303.03 837.00 306.88 835.48 310.38 833.11 C 310.60 832.96 310.84 832.87 311.10 832.84 C 311.35 832.82 311.61 832.86 311.85 832.96 C 312.09 833.06 312.29 833.23 312.45 833.43 C 312.60 833.64 312.70 833.88 312.74 834.14 C 312.85 835.05 312.39 836.13 311.37 837.38 C 309.52 838.58 308.76 840.52 309.10 843.20 C 309.96 849.84 312.75 853.55 317.48 854.35 C 321.69 856.66 326.47 856.19 331.80 852.94 C 337.01 848.55 340.11 843.17 341.11 836.79 C 341.31 835.56 340.80 834.78 339.57 834.44 C 333.08 832.64 327.17 833.47 321.84 836.91 C 320.81 837.57 320.05 838.57 319.69 839.74 C 319.33 840.90 319.40 842.16 319.87 843.28 L 321.50 847.09 C 321.62 847.39 321.65 847.73 321.56 848.05 C 321.48 848.37 321.29 848.66 321.02 848.86 C 320.76 849.06 320.43 849.16 320.10 849.16 C 319.77 849.16 319.45 849.04 319.19 848.84 C 315.94 846.10 314.39 842.41 314.53 837.77 C 323.73 825.49 335.30 824.62 349.23 835.16 C 350.71 836.27 351.01 837.64 350.13 839.26 L 349.14 841.10 C 348.55 842.24 348.70 843.24 349.62 844.09 C 350.19 844.66 350.87 844.62 351.67 843.97 C 354.80 841.32 357.35 838.12 359.32 834.39 Z M 360.46 884.71 C 361.08 885.25 362.26 885.08 363.76 884.25 C 365.25 883.41 366.93 881.98 368.43 880.26 C 369.17 879.41 369.85 878.52 370.41 877.63 C 370.98 876.74 371.44 875.88 371.74 875.09 C 372.05 874.30 372.21 873.60 372.21 873.03 C 372.22 872.46 372.06 872.03 371.76 871.77 C 371.14 871.23 369.96 871.40 368.46 872.23 C 366.97 873.07 365.29 874.50 363.79 876.22 C 363.05 877.07 362.38 877.96 361.81 878.85 C 361.24 879.74 360.79 880.60 360.48 881.39 C 360.17 882.17 360.01 882.88 360.01 883.45 C 360.00 884.02 360.16 884.45 360.46 884.71 Z" fill="#8c3a33" fill-rule="nonzero" group-id="1" node-id="180" stroke="none" target-height="112.87805" target-width="110.59802" target-x="290.128" target-y="824.621"></path><path d="M 331.80 852.94 C 329.54 852.86 327.42 852.31 325.43 851.32 C 324.46 850.83 323.72 851.07 323.20 852.04 C 322.09 854.15 320.19 854.92 317.48 854.35 C 312.75 853.55 309.96 849.84 309.10 843.20 C 308.76 840.52 309.52 838.58 311.37 837.38 L 314.53 837.77 C 314.39 842.41 315.94 846.10 319.19 848.84 C 319.45 849.04 319.77 849.16 320.10 849.16 C 320.43 849.16 320.76 849.06 321.02 848.86 C 321.29 848.66 321.48 848.37 321.56 848.05 C 321.65 847.73 321.62 847.39 321.50 847.09 L 319.87 843.28 C 319.40 842.16 319.33 840.90 319.69 839.74 C 320.05 838.57 320.81 837.57 321.84 836.91 C 327.17 833.47 333.08 832.64 339.57 834.44 C 340.80 834.78 341.31 835.56 341.11 836.79 C 340.11 843.17 337.01 848.55 331.80 852.94 Z" fill="#ff702b" fill-rule="nonzero" group-id="1" node-id="182" stroke="none" target-height="22.278992" target-width="32.55002" target-x="308.761" target-y="832.641"></path><path d="M 290.13 874.22 C 287.22 871.77 284.35 871.07 281.50 872.13 L 281.32 861.62 C 285.86 853.92 285.90 846.19 294.49 840.50 C 294.86 841.10 295.34 841.23 295.94 840.89 C 296.25 843.57 297.56 844.86 299.87 844.78 C 298.22 845.58 297.39 846.39 297.39 847.21 C 296.17 845.88 294.80 846.03 293.29 847.68 C 290.64 850.56 291.01 852.97 294.40 854.91 C 304.57 860.75 315.67 862.77 327.69 860.97 C 329.23 860.75 330.51 860.06 331.54 858.92 C 339.06 850.80 345.56 854.56 355.13 853.41 C 356.72 853.24 358.02 852.50 359.02 851.19 L 367.61 839.95 C 368.13 839.26 368.80 838.70 369.56 838.30 C 370.33 837.91 371.18 837.69 372.04 837.67 C 372.90 837.65 373.76 837.83 374.55 838.18 C 375.33 838.54 376.03 839.07 376.58 839.74 C 379.32 842.98 380.73 846.72 380.81 850.93 C 380.87 852.67 380.07 853.78 378.42 854.26 C 365.68 857.97 352.66 859.34 339.36 858.37 C 338.82 858.31 338.56 858.57 338.59 859.14 C 338.62 859.62 338.63 860.11 338.63 860.59 C 338.60 861.02 338.80 861.30 339.23 861.44 L 357.35 866.70 C 357.81 866.84 358.21 867.12 358.50 867.51 C 358.78 867.89 358.93 868.36 358.93 868.84 L 358.93 870.80 C 358.93 871.15 358.85 871.50 358.68 871.81 C 358.52 872.12 358.27 872.38 357.98 872.57 C 357.69 872.76 357.35 872.88 357.00 872.90 C 356.65 872.93 356.30 872.87 355.98 872.73 C 345.70 868.00 335.01 866.30 323.93 867.64 C 315.21 868.71 307.95 866.62 299.32 867.17 C 298.60 867.23 298.26 867.61 298.29 868.33 L 298.29 868.37 C 298.29 869.05 298.65 869.41 299.36 869.44 C 310.81 869.69 319.87 874.01 331.50 871.74 C 333.12 871.40 334.71 871.47 336.28 871.96 L 350.90 876.44 C 351.72 876.70 352.44 877.20 352.97 877.89 C 353.49 878.58 353.78 879.42 353.80 880.29 L 353.89 881.91 C 353.89 882.20 353.83 882.48 353.71 882.73 C 353.58 882.99 353.41 883.21 353.19 883.38 C 352.97 883.56 352.71 883.68 352.44 883.73 C 352.17 883.79 351.89 883.78 351.62 883.71 L 340.17 880.76 C 339.23 880.53 338.73 879.93 338.68 878.97 C 338.68 878.45 338.66 877.91 338.63 877.34 C 338.63 877.14 338.55 877.00 338.38 876.91 C 334.67 875.40 331.44 876.06 328.68 878.88 C 327.66 879.91 326.36 880.60 324.94 880.86 C 323.53 881.12 322.07 880.93 320.77 880.33 C 310.97 875.80 300.75 873.77 290.13 874.22 Z" fill="#f5534c" fill-rule="nonzero" group-id="1" node-id="184" stroke="none" target-height="46.138977" target-width="99.543976" target-x="281.325" target-y="837.651"></path><path d="M 297.39 847.21 C 297.39 846.39 298.22 845.58 299.87 844.78 C 300.78 843.47 301.92 842.65 303.29 842.34 C 303.58 842.27 303.88 842.26 304.17 842.31 C 304.46 842.36 304.73 842.47 304.98 842.63 C 305.23 842.79 305.44 843.00 305.61 843.24 C 305.77 843.49 305.88 843.76 305.94 844.05 C 306.60 847.38 308.26 850.12 310.94 852.26 C 312.76 853.71 312.52 854.66 310.21 855.12 C 304.63 856.23 300.36 853.60 297.39 847.21 Z" fill="#ff702b" fill-rule="nonzero" group-id="1" node-id="186" stroke="none" target-height="13.968018" target-width="15.369995" target-x="297.393" target-y="842.263"></path><path d="M 331.80 852.94 C 326.47 856.19 321.69 856.66 317.48 854.35 C 320.19 854.92 322.09 854.15 323.20 852.04 C 323.72 851.07 324.46 850.83 325.43 851.32 C 327.42 852.31 329.54 852.86 331.80 852.94 Z" fill="#ac5035" fill-rule="nonzero" group-id="1" node-id="188" stroke="none" target-height="5.82605" target-width="14.3160095" target-x="317.479" target-y="850.832"></path><path d="M 281.32 861.62 L 281.50 872.13 C 278.50 887.97 282.61 894.93 293.80 893.03 C 295.14 892.80 296.40 892.19 297.44 891.27 C 300.68 888.37 304.19 888.34 307.95 891.19 C 309.20 892.13 309.64 893.35 309.27 894.86 C 306.28 907.23 305.77 917.98 307.74 927.13 C 323.95 935.73 341.38 937.50 360.04 932.43 C 363.80 931.40 368.93 928.12 375.43 922.60 C 375.68 924.68 376.21 926.19 377.01 927.13 C 352.78 947.64 317.56 943.58 295.94 921.70 C 290.90 916.63 285.04 908.11 278.38 896.14 L 276.32 884.48 L 277.01 865.76 C 278.43 867.04 279.87 865.66 281.32 861.62 Z" fill="#4c1514" fill-rule="nonzero" group-id="1" node-id="190" stroke="none" target-height="86.026" target-width="100.68298" target-x="276.325" target-y="861.615"></path><path d="M 290.13 874.22 C 307.05 886.87 342.78 889.95 363.76 894.22 C 370.34 895.59 374.07 899.74 374.96 906.66 C 375.13 908.00 374.83 909.24 374.06 910.38 C 369.47 917.04 363.49 922.23 356.11 925.93 C 351.50 928.27 350.26 927.09 352.39 922.38 C 355.21 916.17 355.74 909.68 353.97 902.90 C 353.55 901.25 352.51 900.28 350.86 899.99 L 329.70 896.49 C 328.89 896.36 328.06 896.54 327.38 897.00 C 326.69 897.46 326.21 898.16 326.03 898.97 C 322.69 913.30 316.60 922.68 307.74 927.13 C 305.77 917.98 306.28 907.23 309.27 894.86 C 309.64 893.35 309.20 892.13 307.95 891.19 C 304.19 888.34 300.68 888.37 297.44 891.27 C 296.40 892.19 295.14 892.80 293.80 893.02 C 282.61 894.93 278.50 887.97 281.50 872.13 C 284.35 871.07 287.22 871.77 290.13 874.22 Z" fill="#ff702b" fill-rule="nonzero" group-id="1" node-id="192" stroke="none" target-height="57.19403" target-width="96.62399" target-x="278.504" target-y="871.074"></path><path d="M 363.79 876.22 C 360.67 879.79 359.18 883.60 360.46 884.71 C 361.75 885.83 365.31 883.84 368.43 880.26 C 371.55 876.69 373.04 872.88 371.76 871.77 C 370.48 870.65 366.91 872.64 363.79 876.22 Z" fill="#f5534c" fill-rule="nonzero" group-id="1" node-id="194" stroke="none" target-height="15.179993" target-width="13.854004" target-x="359.184" target-y="870.649"></path></g></g></svg>